<svg viewBox="0 0 210 210" xmlns="http://www.w3.org/2000/svg"><defs><radialGradient id="c" cx="-468.78" cy="440.96" r="128.57" gradientTransform="matrix(-.02062 1.022 -.9998 -.02017 -37.572 928.95)" gradientUnits="userSpaceOnUse"><stop stop-color="#ff0" offset="0"/><stop stop-color="#ffd400" offset=".5"/><stop stop-color="#ffa900" offset="1"/></radialGradient><radialGradient id="a" cx="377.14" cy="404.36" r="216.8" gradientTransform="matrix(0 -1.0008 1.0527 0 -59.965 792.66)" gradientUnits="userSpaceOnUse"><stop stop-color="#fffdbc" offset="0"/><stop stop-color="#fcff00" offset="1"/></radialGradient><linearGradient id="b" x1=".625" x2=".625" y1="-.002" y2="1.074"><stop stop-color="#fff" stop-opacity=".375" offset="0"/><stop stop-color="#fff" stop-opacity="0" offset="1"/></linearGradient><linearGradient id="e" x1=".504" x2=".63" y1=".1" y2="1"><stop stop-color="#fff" offset="0"/><stop stop-color="#fff" stop-opacity="0" offset="1"/></linearGradient><filter id="d"><feGaussianBlur stdDeviation="2.571"/></filter></defs><g fill-rule="evenodd"><path d="M181.55 172.098c-.275.295-36.353-16.928-36.68-16.692-.326.236 4.643 39.903 4.276 40.07-.366.168-27.106-29.55-27.498-29.458-.392.093-10.982 38.643-11.385 38.657-.402.015-13.734-37.675-14.132-37.739-.398-.064-24.933 31.498-25.31 31.358s1.727-40.063 1.384-40.275c-.343-.212-35.089 19.56-35.384 19.285-.295-.275 16.928-36.352 16.692-36.679-.235-.327-39.903 4.642-40.07 4.276-.168-.367 29.55-27.107 29.457-27.5-.092-.391-38.642-10.981-38.657-11.384-.014-.403 37.675-13.735 37.74-14.132.064-.398-31.499-24.934-31.358-25.311.14-.378 40.063 1.728 40.275 1.385.21-.343-19.56-35.09-19.285-35.384.274-.295 36.352 16.927 36.678 16.692.327-.236-4.642-39.903-4.275-40.071.366-.167 27.106 29.551 27.499 29.458.392-.093 10.982-38.642 11.384-38.657.403-.014 13.735 37.675 14.133 37.74.397.063 24.933-31.5 25.311-31.359.378.141-1.728 40.064-1.385 40.275.342.212 35.09-19.559 35.384-19.284.295.274-16.928 36.351-16.692 36.678.235.327 39.903-4.642 40.07-4.275.168.366-29.55 27.106-29.458 27.498.093.392 38.643 10.982 38.657 11.385.015.402-37.674 13.734-37.739 14.132-.064.398 31.499 24.934 31.358 25.311-.14.378-40.063-1.728-40.274-1.385-.212.343 19.559 35.09 19.284 35.384z" fill="#fb0"/><path d="M91.708.669c-.49.526-66.752-25.534-67.335-25.113-.583.42 3.254 71.52 2.6 71.818-.653.299-51.9-49.135-52.598-48.97-.7.165-24.363 67.32-25.081 67.347C-51.425 65.777-79.852.495-80.561.38c-.71-.115-48.271 52.873-48.944 52.622-.674-.251-1.955-71.442-2.567-71.82-.611-.378-64.83 30.376-65.356 29.886-.526-.49 25.534-66.752 25.113-67.335-.42-.583-71.52 3.254-71.818 2.6-.3-.653 49.135-51.899 48.969-52.599-.165-.699-67.321-24.363-67.347-25.08-.025-.719 65.256-29.147 65.37-29.856.116-.71-52.872-48.27-52.621-48.945.25-.673 71.442-1.954 71.82-2.566.377-.61-30.376-64.83-29.887-65.356.49-.527 66.752 25.533 67.335 25.113.583-.42-3.254-71.52-2.6-71.819.653-.298 51.899 49.135 52.599 48.97.699-.166 24.363-67.32 25.08-67.347.719-.026 29.147 65.256 29.856 65.371.709.115 48.27-52.873 48.944-52.622.673.251 1.954 71.442 2.566 71.82.611.377 64.83-30.377 65.356-29.887.526.49-25.534 66.752-25.113 67.335.42.583 71.52-3.254 71.818-2.6.299.653-49.135 51.9-48.97 52.598.166.7 67.322 24.363 67.348 25.081.026.72-65.256 29.146-65.371 29.856-.115.71 52.873 48.271 52.622 48.944-.251.674-71.442 1.955-71.82 2.567C61.443-64.078 92.197.14 91.707.667z" fill="url(#a)" transform="translate(133.55 166.76) scale(.46448)"/><path d="M-62.421-298.32a16.29 16.29 0 0 0-16.062 10.688c-.393 1.073-.97 2.612-1.344 3.625a558.737 558.737 0 0 1-2.906 7.75c-.426 1.104-.686 1.779-.938 2.375-.115.273-.06.177-.437.937-.532 1.076.011.07-.438.781-.575.912.034.084-.687.907-1.021 1.165-.956 1.142-1.219 1.468-.429.17-1.036.419-2.437.75-1.39.329-2.01.397-2.469.438-.38-.174-.324-.188-1.781-.781-1.021-.416-.13.044-1.032-.5-.784-.474.074.097-.718-.5-.598-.451-.438-.337-.813-.657a76.935 76.935 0 0 1-1.906-1.687 539.188 539.188 0 0 1-6.094-5.625c-.526-.494-1.723-1.694-2.812-2.719a16.29 16.29 0 0 0-27.438 12.563c.047 1.12.11 2.789.156 3.937.138 3.44.264 6.293.313 8.281.025 1.015.037 1.662.031 2.5-.006.792.008.484-.03 1.063-.055.804.038-.05-.126.906-.187 1.088.075.043-.28 1.094-.498 1.465-.444 1.405-.564 1.812-.327.319-.794.778-1.969 1.625-1.153.832-1.72 1.133-2.125 1.344-.435-.015-.355-.041-1.906-.031-1.176.007-.288.069-1.156-.063-.816-.123.303.087-.875-.218-.717-.186-.535-.131-1-.282-.677-.219-1.345-.462-2.406-.843a573.859 573.859 0 0 1-7.75-2.875c-.908-.343-2.466-.924-3.657-1.375a16.289 16.289 0 0 0-20.562 22.062c.52 1.121 1.237 2.624 1.656 3.531a531.594 531.594 0 0 1 3.406 7.532c.485 1.095.796 1.762 1.032 2.343.144.356.085.205.343.969.41 1.211.107.101.282.875.273 1.21.086.028.156 1.094.1 1.53.112 1.461.156 1.875-.18.423-.452 1.04-1.219 2.281-.756 1.226-1.14 1.741-1.437 2.094-.39.145-.344.081-1.78.687-.97.409.126.049-1.064.344-.96.238-.135.084-.875.188-.699.098-.5.048-1.062.093-.792.064-1.488.106-2.532.157-2.01.097-4.858.201-8.28.312-1.082.035-2.739.089-3.907.125a16.288 16.288 0 0 0-10.53 28.281c.97.894 2.203 2.006 2.874 2.625 2.525 2.332 4.62 4.251 6.062 5.625a75.071 75.071 0 0 1 1.844 1.813c.504.512.304.276.72.75.868.994.062.024.53.687.488.692.07-.063.594 1 .704 1.429.705 1.354.906 1.719-.007.458-.054 1.093-.28 2.5-.228 1.403-.394 1.997-.533 2.438-.3.277-.282.237-1.406 1.375-.77.779.072.044-.844.718-.659.486.338-.139-.75.5-.549.323-.328.19-.937.5-.744.38-1.368.664-2.28 1.094a554.257 554.257 0 0 1-7.533 3.469c-.86.389-2.37 1.072-3.53 1.594a16.288 16.288 0 0 0 1.093 30.125c1.19.435 2.751 1.01 3.656 1.343a533.756 533.756 0 0 1 7.72 2.907c1.114.43 1.791.69 2.374.937.524.222.347.13.97.438 1.09.54.075-.008.78.437.717.453-.026-.102.875.688 1.166 1.022 1.142.956 1.47 1.218.17.429.417 1.037.75 2.438.207.879.213 1.077.342 2.531a16.294 16.294 0 0 0 19.157 14.594c73.586 1.12 163.07-27.82 230.75-70.625a16.29 16.29 0 0 0 9.75-10.375c-.185.594-.443 1.484 1-2.063.417-1.024-.041-.134.5-1.03.476-.79-.092.064.5-.72.296-.392.048-.062.688-.812a71.12 71.12 0 0 1 1.656-1.875 534.85 534.85 0 0 1 5.625-6.094c.652-.695 1.817-1.919 2.687-2.844A16.29 16.29 0 0 0 71.705-214.6c-1.428.06-3.097.156-3.875.187-3.351.133-6.16.231-8.282.282-1.02.024-1.709.037-2.53.031-.806-.006-.44.008-1.032-.03-.826-.057.073.037-.875-.126-1.107-.19-.083.072-1.125-.282-1.477-.5-1.41-.444-1.813-.562-.318-.327-.778-.796-1.625-1.969-.843-1.169-1.136-1.725-1.343-2.125.015-.436.04-.356.03-1.906-.007-1.168-.07-.273.063-1.156.117-.775-.133.513.22-.844.183-.709.125-.519.28-1a78.84 78.84 0 0 1 .844-2.438 579.408 579.408 0 0 1 2.875-7.75c.294-.78.886-2.333 1.375-3.625A16.288 16.288 0 0 0 32.8-258.476c-1.11.515-2.61 1.23-3.532 1.656a514.944 514.944 0 0 1-7.53 3.406c-1.086.481-1.751.791-2.345 1.032-.34.138-.197.082-.968.343-1.393.471-.112.116-.844.282-1.098.248-.041.084-1.125.156-1.53.101-1.462.112-1.875.156-.424-.182-1.039-.452-2.281-1.219-1.221-.753-1.712-1.143-2.063-1.437-.146-.394-.107-.33-.719-1.78-.412-.98-.054.075-.343-1.095-.24-.97-.088-.159-.188-.875-.099-.709-.05-.488-.094-1.03a74.188 74.188 0 0 1-.156-2.533 569.556 569.556 0 0 1-.312-8.28c-.036-1.099-.09-2.756-.125-3.907a16.288 16.288 0 0 0-28.281-10.53c-.897.973-1.997 2.195-2.594 2.842-2.332 2.526-4.25 4.62-5.625 6.063a77.207 77.207 0 0 1-1.813 1.844c-.512.504-.276.304-.75.718-.994.87-.024.063-.687.532-.692.488.063.07-1 .593-1.428.705-1.353.705-1.719.907-.458-.008-1.092-.054-2.5-.282-1.402-.227-1.996-.392-2.437-.53-.278-.302-.237-.283-1.375-1.407-.775-.765-.038.08-.72-.844-.481-.654.149.352-.5-.75-.318-.542-.181-.315-.5-.937-.442-.867-.744-1.444-1.124-2.25-.862-1.827-2.027-4.447-3.438-7.563l-1.593-3.53a16.29 16.29 0 0 0-14.062-9.595z" fill="url(#b)" transform="translate(133.55 166.76) scale(.46448)"/><path d="M50.511-138.7a108.57 108.57 0 1 1-217.14 0 108.57 108.57 0 1 1 217.14 0z" fill="url(#c)" filter="url(#d)" transform="translate(133.55 166.76) scale(.46448)"/><path d="M-66.127-235.44c-39.283 0-73.454 27.635-82.187 64.657a34.566 34.566 0 0 0 28.531 42.125c8.413 1.249 17.929 1.418 30.75.562 23.024-1.538 48.513-7.691 75.812-16.187a34.566 34.566 0 0 0 19.25-50.969c-14.715-24.161-42.053-40.188-72.156-40.188z" fill="url(#e)" transform="translate(133.55 166.76) scale(.46448)"/></g></svg>