<svg width="110.763" height="114.622" viewBox="0 0 103.841 107.458" xmlns="http://www.w3.org/2000/svg" xmlns:xlink="http://www.w3.org/1999/xlink"><defs><pattern id="g" width="10" height="10" patternTransform="scale(10)" patternUnits="userSpaceOnUse"><circle cx="2.567" cy=".81" r=".45"/><circle cx="3.048" cy="2.33" r=".45"/><circle cx="4.418" cy="2.415" r=".45"/><circle cx="1.844" cy="3.029" r=".45"/><circle cx="6.08" cy="1.363" r=".45"/><circle cx="5.819" cy="4.413" r=".45"/><circle cx="4.305" cy="4.048" r=".45"/><circle cx="5.541" cy="3.045" r=".45"/><circle cx="4.785" cy="5.527" r=".45"/><circle cx="2.667" cy="5.184" r=".45"/><circle cx="7.965" cy="1.448" r=".45"/><circle cx="7.047" cy="5.049" r=".45"/><circle cx="4.34" cy=".895" r=".45"/><circle cx="7.125" cy=".34" r=".45"/><circle cx="9.553" cy="1.049" r=".45"/><circle cx="7.006" cy="2.689" r=".45"/><circle cx="8.909" cy="2.689" r=".45"/><circle cx="9.315" cy="4.407" r=".45"/><circle cx="7.82" cy="3.87" r=".45"/><circle cx="8.27" cy="5.948" r=".45"/><circle cx="7.973" cy="7.428" r=".45"/><circle cx="9.342" cy="8.072" r=".45"/><circle cx="8.206" cy="9.315" r=".45"/><circle cx="9.682" cy="9.475" r=".45"/><circle cx="9.688" cy="6.186" r=".45"/><circle cx="3.379" cy="6.296" r=".45"/><circle cx="2.871" cy="8.204" r=".45"/><circle cx="4.59" cy="8.719" r=".45"/><circle cx="3.181" cy="9.671" r=".45"/><circle cx="5.734" cy="7.315" r=".45"/><circle cx="6.707" cy="6.513" r=".45"/><circle cx="5.73" cy="9.67" r=".45"/><circle cx="6.535" cy="8.373" r=".45"/><circle cx="4.37" cy="7.154" r=".45"/><circle cx=".622" cy="7.25" r=".45"/><circle cx=".831" cy="5.679" r=".45"/><circle cx="1.257" cy="8.519" r=".45"/><circle cx="1.989" cy="6.877" r=".45"/><circle cx=".374" cy="3.181" r=".45"/><circle cx="1.166" cy="1.664" r=".45"/><circle cx="1.151" cy=".093" r=".45"/><circle cx="1.151" cy="10.093" r=".45"/><circle cx="1.302" cy="4.451" r=".45"/><circle cx="3.047" cy="3.763" r=".45"/></pattern><pattern id="U" xlink:href="#n" patternTransform="matrix(1.4071 0 0 1.6355 -191.47 864.14)"/><pattern id="a" width="10" height="10" patternTransform="scale(10)" patternUnits="userSpaceOnUse"><circle cx="2.567" cy=".81" r=".45"/><circle cx="3.048" cy="2.33" r=".45"/><circle cx="4.418" cy="2.415" r=".45"/><circle cx="1.844" cy="3.029" r=".45"/><circle cx="6.08" cy="1.363" r=".45"/><circle cx="5.819" cy="4.413" r=".45"/><circle cx="4.305" cy="4.048" r=".45"/><circle cx="5.541" cy="3.045" r=".45"/><circle cx="4.785" cy="5.527" r=".45"/><circle cx="2.667" cy="5.184" r=".45"/><circle cx="7.965" cy="1.448" r=".45"/><circle cx="7.047" cy="5.049" r=".45"/><circle cx="4.34" cy=".895" r=".45"/><circle cx="7.125" cy=".34" r=".45"/><circle cx="9.553" cy="1.049" r=".45"/><circle cx="7.006" cy="2.689" r=".45"/><circle cx="8.909" cy="2.689" r=".45"/><circle cx="9.315" cy="4.407" r=".45"/><circle cx="7.82" cy="3.87" r=".45"/><circle cx="8.27" cy="5.948" r=".45"/><circle cx="7.973" cy="7.428" r=".45"/><circle cx="9.342" cy="8.072" r=".45"/><circle cx="8.206" cy="9.315" r=".45"/><circle cx="9.682" cy="9.475" r=".45"/><circle cx="9.688" cy="6.186" r=".45"/><circle cx="3.379" cy="6.296" r=".45"/><circle cx="2.871" cy="8.204" r=".45"/><circle cx="4.59" cy="8.719" r=".45"/><circle cx="3.181" cy="9.671" r=".45"/><circle cx="5.734" cy="7.315" r=".45"/><circle cx="6.707" cy="6.513" r=".45"/><circle cx="5.73" cy="9.67" r=".45"/><circle cx="6.535" cy="8.373" r=".45"/><circle cx="4.37" cy="7.154" r=".45"/><circle cx=".622" cy="7.25" r=".45"/><circle cx=".831" cy="5.679" r=".45"/><circle cx="1.257" cy="8.519" r=".45"/><circle cx="1.989" cy="6.877" r=".45"/><circle cx=".374" cy="3.181" r=".45"/><circle cx="1.166" cy="1.664" r=".45"/><circle cx="1.151" cy=".093" r=".45"/><circle cx="1.151" cy="10.093" r=".45"/><circle cx="1.302" cy="4.451" r=".45"/><circle cx="3.047" cy="3.763" r=".45"/></pattern><pattern id="K" xlink:href="#b" patternTransform="matrix(.49007 .20135 -.24454 .59519 41.612 918.8)"/><pattern id="b" width="10" height="10" patternTransform="scale(10)" patternUnits="userSpaceOnUse"><circle cx="2.567" cy=".81" r=".45"/><circle cx="3.048" cy="2.33" r=".45"/><circle cx="4.418" cy="2.415" r=".45"/><circle cx="1.844" cy="3.029" r=".45"/><circle cx="6.08" cy="1.363" r=".45"/><circle cx="5.819" cy="4.413" r=".45"/><circle cx="4.305" cy="4.048" r=".45"/><circle cx="5.541" cy="3.045" r=".45"/><circle cx="4.785" cy="5.527" r=".45"/><circle cx="2.667" cy="5.184" r=".45"/><circle cx="7.965" cy="1.448" r=".45"/><circle cx="7.047" cy="5.049" r=".45"/><circle cx="4.34" cy=".895" r=".45"/><circle cx="7.125" cy=".34" r=".45"/><circle cx="9.553" cy="1.049" r=".45"/><circle cx="7.006" cy="2.689" r=".45"/><circle cx="8.909" cy="2.689" r=".45"/><circle cx="9.315" cy="4.407" r=".45"/><circle cx="7.82" cy="3.87" r=".45"/><circle cx="8.27" cy="5.948" r=".45"/><circle cx="7.973" cy="7.428" r=".45"/><circle cx="9.342" cy="8.072" r=".45"/><circle cx="8.206" cy="9.315" r=".45"/><circle cx="9.682" cy="9.475" r=".45"/><circle cx="9.688" cy="6.186" r=".45"/><circle cx="3.379" cy="6.296" r=".45"/><circle cx="2.871" cy="8.204" r=".45"/><circle cx="4.59" cy="8.719" r=".45"/><circle cx="3.181" cy="9.671" r=".45"/><circle cx="5.734" cy="7.315" r=".45"/><circle cx="6.707" cy="6.513" r=".45"/><circle cx="5.73" cy="9.67" r=".45"/><circle cx="6.535" cy="8.373" r=".45"/><circle cx="4.37" cy="7.154" r=".45"/><circle cx=".622" cy="7.25" r=".45"/><circle cx=".831" cy="5.679" r=".45"/><circle cx="1.257" cy="8.519" r=".45"/><circle cx="1.989" cy="6.877" r=".45"/><circle cx=".374" cy="3.181" r=".45"/><circle cx="1.166" cy="1.664" r=".45"/><circle cx="1.151" cy=".093" r=".45"/><circle cx="1.151" cy="10.093" r=".45"/><circle cx="1.302" cy="4.451" r=".45"/><circle cx="3.047" cy="3.763" r=".45"/></pattern><pattern id="I" xlink:href="#c" patternTransform="matrix(.49007 .20135 -.24454 .59519 62.951 921.2)"/><pattern id="c" width="10" height="10" patternTransform="scale(10)" patternUnits="userSpaceOnUse"><circle cx="2.567" cy=".81" r=".45"/><circle cx="3.048" cy="2.33" r=".45"/><circle cx="4.418" cy="2.415" r=".45"/><circle cx="1.844" cy="3.029" r=".45"/><circle cx="6.08" cy="1.363" r=".45"/><circle cx="5.819" cy="4.413" r=".45"/><circle cx="4.305" cy="4.048" r=".45"/><circle cx="5.541" cy="3.045" r=".45"/><circle cx="4.785" cy="5.527" r=".45"/><circle cx="2.667" cy="5.184" r=".45"/><circle cx="7.965" cy="1.448" r=".45"/><circle cx="7.047" cy="5.049" r=".45"/><circle cx="4.34" cy=".895" r=".45"/><circle cx="7.125" cy=".34" r=".45"/><circle cx="9.553" cy="1.049" r=".45"/><circle cx="7.006" cy="2.689" r=".45"/><circle cx="8.909" cy="2.689" r=".45"/><circle cx="9.315" cy="4.407" r=".45"/><circle cx="7.82" cy="3.87" r=".45"/><circle cx="8.27" cy="5.948" r=".45"/><circle cx="7.973" cy="7.428" r=".45"/><circle cx="9.342" cy="8.072" r=".45"/><circle cx="8.206" cy="9.315" r=".45"/><circle cx="9.682" cy="9.475" r=".45"/><circle cx="9.688" cy="6.186" r=".45"/><circle cx="3.379" cy="6.296" r=".45"/><circle cx="2.871" cy="8.204" r=".45"/><circle cx="4.59" cy="8.719" r=".45"/><circle cx="3.181" cy="9.671" r=".45"/><circle cx="5.734" cy="7.315" r=".45"/><circle cx="6.707" cy="6.513" r=".45"/><circle cx="5.73" cy="9.67" r=".45"/><circle cx="6.535" cy="8.373" r=".45"/><circle cx="4.37" cy="7.154" r=".45"/><circle cx=".622" cy="7.25" r=".45"/><circle cx=".831" cy="5.679" r=".45"/><circle cx="1.257" cy="8.519" r=".45"/><circle cx="1.989" cy="6.877" r=".45"/><circle cx=".374" cy="3.181" r=".45"/><circle cx="1.166" cy="1.664" r=".45"/><circle cx="1.151" cy=".093" r=".45"/><circle cx="1.151" cy="10.093" r=".45"/><circle cx="1.302" cy="4.451" r=".45"/><circle cx="3.047" cy="3.763" r=".45"/></pattern><pattern id="G" xlink:href="#d" patternTransform="matrix(.49007 .20135 -.24454 .59519 85.048 913.5)"/><pattern id="d" width="10" height="10" patternTransform="scale(10)" patternUnits="userSpaceOnUse"><circle cx="2.567" cy=".81" r=".45"/><circle cx="3.048" cy="2.33" r=".45"/><circle cx="4.418" cy="2.415" r=".45"/><circle cx="1.844" cy="3.029" r=".45"/><circle cx="6.08" cy="1.363" r=".45"/><circle cx="5.819" cy="4.413" r=".45"/><circle cx="4.305" cy="4.048" r=".45"/><circle cx="5.541" cy="3.045" r=".45"/><circle cx="4.785" cy="5.527" r=".45"/><circle cx="2.667" cy="5.184" r=".45"/><circle cx="7.965" cy="1.448" r=".45"/><circle cx="7.047" cy="5.049" r=".45"/><circle cx="4.34" cy=".895" r=".45"/><circle cx="7.125" cy=".34" r=".45"/><circle cx="9.553" cy="1.049" r=".45"/><circle cx="7.006" cy="2.689" r=".45"/><circle cx="8.909" cy="2.689" r=".45"/><circle cx="9.315" cy="4.407" r=".45"/><circle cx="7.82" cy="3.87" r=".45"/><circle cx="8.27" cy="5.948" r=".45"/><circle cx="7.973" cy="7.428" r=".45"/><circle cx="9.342" cy="8.072" r=".45"/><circle cx="8.206" cy="9.315" r=".45"/><circle cx="9.682" cy="9.475" r=".45"/><circle cx="9.688" cy="6.186" r=".45"/><circle cx="3.379" cy="6.296" r=".45"/><circle cx="2.871" cy="8.204" r=".45"/><circle cx="4.59" cy="8.719" r=".45"/><circle cx="3.181" cy="9.671" r=".45"/><circle cx="5.734" cy="7.315" r=".45"/><circle cx="6.707" cy="6.513" r=".45"/><circle cx="5.73" cy="9.67" r=".45"/><circle cx="6.535" cy="8.373" r=".45"/><circle cx="4.37" cy="7.154" r=".45"/><circle cx=".622" cy="7.25" r=".45"/><circle cx=".831" cy="5.679" r=".45"/><circle cx="1.257" cy="8.519" r=".45"/><circle cx="1.989" cy="6.877" r=".45"/><circle cx=".374" cy="3.181" r=".45"/><circle cx="1.166" cy="1.664" r=".45"/><circle cx="1.151" cy=".093" r=".45"/><circle cx="1.151" cy="10.093" r=".45"/><circle cx="1.302" cy="4.451" r=".45"/><circle cx="3.047" cy="3.763" r=".45"/></pattern><pattern id="w" xlink:href="#e" patternTransform="matrix(.49007 .20135 -.24454 .59519 27.469 932.57)"/><pattern id="e" width="10" height="10" patternTransform="scale(10)" patternUnits="userSpaceOnUse"><circle cx="2.567" cy=".81" r=".45"/><circle cx="3.048" cy="2.33" r=".45"/><circle cx="4.418" cy="2.415" r=".45"/><circle cx="1.844" cy="3.029" r=".45"/><circle cx="6.08" cy="1.363" r=".45"/><circle cx="5.819" cy="4.413" r=".45"/><circle cx="4.305" cy="4.048" r=".45"/><circle cx="5.541" cy="3.045" r=".45"/><circle cx="4.785" cy="5.527" r=".45"/><circle cx="2.667" cy="5.184" r=".45"/><circle cx="7.965" cy="1.448" r=".45"/><circle cx="7.047" cy="5.049" r=".45"/><circle cx="4.34" cy=".895" r=".45"/><circle cx="7.125" cy=".34" r=".45"/><circle cx="9.553" cy="1.049" r=".45"/><circle cx="7.006" cy="2.689" r=".45"/><circle cx="8.909" cy="2.689" r=".45"/><circle cx="9.315" cy="4.407" r=".45"/><circle cx="7.82" cy="3.87" r=".45"/><circle cx="8.27" cy="5.948" r=".45"/><circle cx="7.973" cy="7.428" r=".45"/><circle cx="9.342" cy="8.072" r=".45"/><circle cx="8.206" cy="9.315" r=".45"/><circle cx="9.682" cy="9.475" r=".45"/><circle cx="9.688" cy="6.186" r=".45"/><circle cx="3.379" cy="6.296" r=".45"/><circle cx="2.871" cy="8.204" r=".45"/><circle cx="4.59" cy="8.719" r=".45"/><circle cx="3.181" cy="9.671" r=".45"/><circle cx="5.734" cy="7.315" r=".45"/><circle cx="6.707" cy="6.513" r=".45"/><circle cx="5.73" cy="9.67" r=".45"/><circle cx="6.535" cy="8.373" r=".45"/><circle cx="4.37" cy="7.154" r=".45"/><circle cx=".622" cy="7.25" r=".45"/><circle cx=".831" cy="5.679" r=".45"/><circle cx="1.257" cy="8.519" r=".45"/><circle cx="1.989" cy="6.877" r=".45"/><circle cx=".374" cy="3.181" r=".45"/><circle cx="1.166" cy="1.664" r=".45"/><circle cx="1.151" cy=".093" r=".45"/><circle cx="1.151" cy="10.093" r=".45"/><circle cx="1.302" cy="4.451" r=".45"/><circle cx="3.047" cy="3.763" r=".45"/></pattern><pattern id="s" xlink:href="#f" patternTransform="matrix(.49007 .20135 -.24454 .59519 49.945 929.66)"/><pattern id="f" width="10" height="10" patternTransform="scale(10)" patternUnits="userSpaceOnUse"><circle cx="2.567" cy=".81" r=".45"/><circle cx="3.048" cy="2.33" r=".45"/><circle cx="4.418" cy="2.415" r=".45"/><circle cx="1.844" cy="3.029" r=".45"/><circle cx="6.08" cy="1.363" r=".45"/><circle cx="5.819" cy="4.413" r=".45"/><circle cx="4.305" cy="4.048" r=".45"/><circle cx="5.541" cy="3.045" r=".45"/><circle cx="4.785" cy="5.527" r=".45"/><circle cx="2.667" cy="5.184" r=".45"/><circle cx="7.965" cy="1.448" r=".45"/><circle cx="7.047" cy="5.049" r=".45"/><circle cx="4.34" cy=".895" r=".45"/><circle cx="7.125" cy=".34" r=".45"/><circle cx="9.553" cy="1.049" r=".45"/><circle cx="7.006" cy="2.689" r=".45"/><circle cx="8.909" cy="2.689" r=".45"/><circle cx="9.315" cy="4.407" r=".45"/><circle cx="7.82" cy="3.87" r=".45"/><circle cx="8.27" cy="5.948" r=".45"/><circle cx="7.973" cy="7.428" r=".45"/><circle cx="9.342" cy="8.072" r=".45"/><circle cx="8.206" cy="9.315" r=".45"/><circle cx="9.682" cy="9.475" r=".45"/><circle cx="9.688" cy="6.186" r=".45"/><circle cx="3.379" cy="6.296" r=".45"/><circle cx="2.871" cy="8.204" r=".45"/><circle cx="4.59" cy="8.719" r=".45"/><circle cx="3.181" cy="9.671" r=".45"/><circle cx="5.734" cy="7.315" r=".45"/><circle cx="6.707" cy="6.513" r=".45"/><circle cx="5.73" cy="9.67" r=".45"/><circle cx="6.535" cy="8.373" r=".45"/><circle cx="4.37" cy="7.154" r=".45"/><circle cx=".622" cy="7.25" r=".45"/><circle cx=".831" cy="5.679" r=".45"/><circle cx="1.257" cy="8.519" r=".45"/><circle cx="1.989" cy="6.877" r=".45"/><circle cx=".374" cy="3.181" r=".45"/><circle cx="1.166" cy="1.664" r=".45"/><circle cx="1.151" cy=".093" r=".45"/><circle cx="1.151" cy="10.093" r=".45"/><circle cx="1.302" cy="4.451" r=".45"/><circle cx="3.047" cy="3.763" r=".45"/></pattern><pattern id="C" xlink:href="#g" patternTransform="matrix(.49007 .20135 -.24454 .59519 73.684 931.94)"/><pattern id="M" xlink:href="#a" patternTransform="matrix(.49007 .20135 -.24454 .59519 22.409 916.24)"/><pattern id="u" xlink:href="#h" patternTransform="matrix(.49007 .20135 -.24454 .59519 10.676 940.65)"/><pattern id="h" width="10" height="10" patternTransform="scale(10)" patternUnits="userSpaceOnUse"><circle cx="2.567" cy=".81" r=".45"/><circle cx="3.048" cy="2.33" r=".45"/><circle cx="4.418" cy="2.415" r=".45"/><circle cx="1.844" cy="3.029" r=".45"/><circle cx="6.08" cy="1.363" r=".45"/><circle cx="5.819" cy="4.413" r=".45"/><circle cx="4.305" cy="4.048" r=".45"/><circle cx="5.541" cy="3.045" r=".45"/><circle cx="4.785" cy="5.527" r=".45"/><circle cx="2.667" cy="5.184" r=".45"/><circle cx="7.965" cy="1.448" r=".45"/><circle cx="7.047" cy="5.049" r=".45"/><circle cx="4.34" cy=".895" r=".45"/><circle cx="7.125" cy=".34" r=".45"/><circle cx="9.553" cy="1.049" r=".45"/><circle cx="7.006" cy="2.689" r=".45"/><circle cx="8.909" cy="2.689" r=".45"/><circle cx="9.315" cy="4.407" r=".45"/><circle cx="7.82" cy="3.87" r=".45"/><circle cx="8.27" cy="5.948" r=".45"/><circle cx="7.973" cy="7.428" r=".45"/><circle cx="9.342" cy="8.072" r=".45"/><circle cx="8.206" cy="9.315" r=".45"/><circle cx="9.682" cy="9.475" r=".45"/><circle cx="9.688" cy="6.186" r=".45"/><circle cx="3.379" cy="6.296" r=".45"/><circle cx="2.871" cy="8.204" r=".45"/><circle cx="4.59" cy="8.719" r=".45"/><circle cx="3.181" cy="9.671" r=".45"/><circle cx="5.734" cy="7.315" r=".45"/><circle cx="6.707" cy="6.513" r=".45"/><circle cx="5.73" cy="9.67" r=".45"/><circle cx="6.535" cy="8.373" r=".45"/><circle cx="4.37" cy="7.154" r=".45"/><circle cx=".622" cy="7.25" r=".45"/><circle cx=".831" cy="5.679" r=".45"/><circle cx="1.257" cy="8.519" r=".45"/><circle cx="1.989" cy="6.877" r=".45"/><circle cx=".374" cy="3.181" r=".45"/><circle cx="1.166" cy="1.664" r=".45"/><circle cx="1.151" cy=".093" r=".45"/><circle cx="1.151" cy="10.093" r=".45"/><circle cx="1.302" cy="4.451" r=".45"/><circle cx="3.047" cy="3.763" r=".45"/></pattern><pattern id="y" xlink:href="#i" patternTransform="matrix(.49007 .20135 -.24454 .59519 37.824 945.95)"/><pattern id="i" width="10" height="10" patternTransform="scale(10)" patternUnits="userSpaceOnUse"><circle cx="2.567" cy=".81" r=".45"/><circle cx="3.048" cy="2.33" r=".45"/><circle cx="4.418" cy="2.415" r=".45"/><circle cx="1.844" cy="3.029" r=".45"/><circle cx="6.08" cy="1.363" r=".45"/><circle cx="5.819" cy="4.413" r=".45"/><circle cx="4.305" cy="4.048" r=".45"/><circle cx="5.541" cy="3.045" r=".45"/><circle cx="4.785" cy="5.527" r=".45"/><circle cx="2.667" cy="5.184" r=".45"/><circle cx="7.965" cy="1.448" r=".45"/><circle cx="7.047" cy="5.049" r=".45"/><circle cx="4.34" cy=".895" r=".45"/><circle cx="7.125" cy=".34" r=".45"/><circle cx="9.553" cy="1.049" r=".45"/><circle cx="7.006" cy="2.689" r=".45"/><circle cx="8.909" cy="2.689" r=".45"/><circle cx="9.315" cy="4.407" r=".45"/><circle cx="7.82" cy="3.87" r=".45"/><circle cx="8.27" cy="5.948" r=".45"/><circle cx="7.973" cy="7.428" r=".45"/><circle cx="9.342" cy="8.072" r=".45"/><circle cx="8.206" cy="9.315" r=".45"/><circle cx="9.682" cy="9.475" r=".45"/><circle cx="9.688" cy="6.186" r=".45"/><circle cx="3.379" cy="6.296" r=".45"/><circle cx="2.871" cy="8.204" r=".45"/><circle cx="4.59" cy="8.719" r=".45"/><circle cx="3.181" cy="9.671" r=".45"/><circle cx="5.734" cy="7.315" r=".45"/><circle cx="6.707" cy="6.513" r=".45"/><circle cx="5.73" cy="9.67" r=".45"/><circle cx="6.535" cy="8.373" r=".45"/><circle cx="4.37" cy="7.154" r=".45"/><circle cx=".622" cy="7.25" r=".45"/><circle cx=".831" cy="5.679" r=".45"/><circle cx="1.257" cy="8.519" r=".45"/><circle cx="1.989" cy="6.877" r=".45"/><circle cx=".374" cy="3.181" r=".45"/><circle cx="1.166" cy="1.664" r=".45"/><circle cx="1.151" cy=".093" r=".45"/><circle cx="1.151" cy="10.093" r=".45"/><circle cx="1.302" cy="4.451" r=".45"/><circle cx="3.047" cy="3.763" r=".45"/></pattern><pattern id="A" xlink:href="#j" patternTransform="matrix(.49007 .20135 -.24454 .59519 57.9 943.55)"/><pattern id="j" width="10" height="10" patternTransform="scale(10)" patternUnits="userSpaceOnUse"><circle cx="2.567" cy=".81" r=".45"/><circle cx="3.048" cy="2.33" r=".45"/><circle cx="4.418" cy="2.415" r=".45"/><circle cx="1.844" cy="3.029" r=".45"/><circle cx="6.08" cy="1.363" r=".45"/><circle cx="5.819" cy="4.413" r=".45"/><circle cx="4.305" cy="4.048" r=".45"/><circle cx="5.541" cy="3.045" r=".45"/><circle cx="4.785" cy="5.527" r=".45"/><circle cx="2.667" cy="5.184" r=".45"/><circle cx="7.965" cy="1.448" r=".45"/><circle cx="7.047" cy="5.049" r=".45"/><circle cx="4.34" cy=".895" r=".45"/><circle cx="7.125" cy=".34" r=".45"/><circle cx="9.553" cy="1.049" r=".45"/><circle cx="7.006" cy="2.689" r=".45"/><circle cx="8.909" cy="2.689" r=".45"/><circle cx="9.315" cy="4.407" r=".45"/><circle cx="7.82" cy="3.87" r=".45"/><circle cx="8.27" cy="5.948" r=".45"/><circle cx="7.973" cy="7.428" r=".45"/><circle cx="9.342" cy="8.072" r=".45"/><circle cx="8.206" cy="9.315" r=".45"/><circle cx="9.682" cy="9.475" r=".45"/><circle cx="9.688" cy="6.186" r=".45"/><circle cx="3.379" cy="6.296" r=".45"/><circle cx="2.871" cy="8.204" r=".45"/><circle cx="4.59" cy="8.719" r=".45"/><circle cx="3.181" cy="9.671" r=".45"/><circle cx="5.734" cy="7.315" r=".45"/><circle cx="6.707" cy="6.513" r=".45"/><circle cx="5.73" cy="9.67" r=".45"/><circle cx="6.535" cy="8.373" r=".45"/><circle cx="4.37" cy="7.154" r=".45"/><circle cx=".622" cy="7.25" r=".45"/><circle cx=".831" cy="5.679" r=".45"/><circle cx="1.257" cy="8.519" r=".45"/><circle cx="1.989" cy="6.877" r=".45"/><circle cx=".374" cy="3.181" r=".45"/><circle cx="1.166" cy="1.664" r=".45"/><circle cx="1.151" cy=".093" r=".45"/><circle cx="1.151" cy="10.093" r=".45"/><circle cx="1.302" cy="4.451" r=".45"/><circle cx="3.047" cy="3.763" r=".45"/></pattern><pattern id="O" xlink:href="#k" patternTransform="matrix(.49007 .20135 -.24454 .59519 78.103 947.97)"/><pattern id="k" width="10" height="10" patternTransform="scale(10)" patternUnits="userSpaceOnUse"><circle cx="2.567" cy=".81" r=".45"/><circle cx="3.048" cy="2.33" r=".45"/><circle cx="4.418" cy="2.415" r=".45"/><circle cx="1.844" cy="3.029" r=".45"/><circle cx="6.08" cy="1.363" r=".45"/><circle cx="5.819" cy="4.413" r=".45"/><circle cx="4.305" cy="4.048" r=".45"/><circle cx="5.541" cy="3.045" r=".45"/><circle cx="4.785" cy="5.527" r=".45"/><circle cx="2.667" cy="5.184" r=".45"/><circle cx="7.965" cy="1.448" r=".45"/><circle cx="7.047" cy="5.049" r=".45"/><circle cx="4.34" cy=".895" r=".45"/><circle cx="7.125" cy=".34" r=".45"/><circle cx="9.553" cy="1.049" r=".45"/><circle cx="7.006" cy="2.689" r=".45"/><circle cx="8.909" cy="2.689" r=".45"/><circle cx="9.315" cy="4.407" r=".45"/><circle cx="7.82" cy="3.87" r=".45"/><circle cx="8.27" cy="5.948" r=".45"/><circle cx="7.973" cy="7.428" r=".45"/><circle cx="9.342" cy="8.072" r=".45"/><circle cx="8.206" cy="9.315" r=".45"/><circle cx="9.682" cy="9.475" r=".45"/><circle cx="9.688" cy="6.186" r=".45"/><circle cx="3.379" cy="6.296" r=".45"/><circle cx="2.871" cy="8.204" r=".45"/><circle cx="4.59" cy="8.719" r=".45"/><circle cx="3.181" cy="9.671" r=".45"/><circle cx="5.734" cy="7.315" r=".45"/><circle cx="6.707" cy="6.513" r=".45"/><circle cx="5.73" cy="9.67" r=".45"/><circle cx="6.535" cy="8.373" r=".45"/><circle cx="4.37" cy="7.154" r=".45"/><circle cx=".622" cy="7.25" r=".45"/><circle cx=".831" cy="5.679" r=".45"/><circle cx="1.257" cy="8.519" r=".45"/><circle cx="1.989" cy="6.877" r=".45"/><circle cx=".374" cy="3.181" r=".45"/><circle cx="1.166" cy="1.664" r=".45"/><circle cx="1.151" cy=".093" r=".45"/><circle cx="1.151" cy="10.093" r=".45"/><circle cx="1.302" cy="4.451" r=".45"/><circle cx="3.047" cy="3.763" r=".45"/></pattern><pattern id="E" xlink:href="#l" patternTransform="matrix(.49007 .20135 -.24454 .59519 88.71 928.9)"/><pattern id="l" width="10" height="10" patternTransform="scale(10)" patternUnits="userSpaceOnUse"><circle cx="2.567" cy=".81" r=".45"/><circle cx="3.048" cy="2.33" r=".45"/><circle cx="4.418" cy="2.415" r=".45"/><circle cx="1.844" cy="3.029" r=".45"/><circle cx="6.08" cy="1.363" r=".45"/><circle cx="5.819" cy="4.413" r=".45"/><circle cx="4.305" cy="4.048" r=".45"/><circle cx="5.541" cy="3.045" r=".45"/><circle cx="4.785" cy="5.527" r=".45"/><circle cx="2.667" cy="5.184" r=".45"/><circle cx="7.965" cy="1.448" r=".45"/><circle cx="7.047" cy="5.049" r=".45"/><circle cx="4.34" cy=".895" r=".45"/><circle cx="7.125" cy=".34" r=".45"/><circle cx="9.553" cy="1.049" r=".45"/><circle cx="7.006" cy="2.689" r=".45"/><circle cx="8.909" cy="2.689" r=".45"/><circle cx="9.315" cy="4.407" r=".45"/><circle cx="7.82" cy="3.87" r=".45"/><circle cx="8.27" cy="5.948" r=".45"/><circle cx="7.973" cy="7.428" r=".45"/><circle cx="9.342" cy="8.072" r=".45"/><circle cx="8.206" cy="9.315" r=".45"/><circle cx="9.682" cy="9.475" r=".45"/><circle cx="9.688" cy="6.186" r=".45"/><circle cx="3.379" cy="6.296" r=".45"/><circle cx="2.871" cy="8.204" r=".45"/><circle cx="4.59" cy="8.719" r=".45"/><circle cx="3.181" cy="9.671" r=".45"/><circle cx="5.734" cy="7.315" r=".45"/><circle cx="6.707" cy="6.513" r=".45"/><circle cx="5.73" cy="9.67" r=".45"/><circle cx="6.535" cy="8.373" r=".45"/><circle cx="4.37" cy="7.154" r=".45"/><circle cx=".622" cy="7.25" r=".45"/><circle cx=".831" cy="5.679" r=".45"/><circle cx="1.257" cy="8.519" r=".45"/><circle cx="1.989" cy="6.877" r=".45"/><circle cx=".374" cy="3.181" r=".45"/><circle cx="1.166" cy="1.664" r=".45"/><circle cx="1.151" cy=".093" r=".45"/><circle cx="1.151" cy="10.093" r=".45"/><circle cx="1.302" cy="4.451" r=".45"/><circle cx="3.047" cy="3.763" r=".45"/></pattern><pattern id="Q" xlink:href="#m" patternTransform="matrix(.49007 .20135 -.24454 .59519 7.14 919.18)"/><pattern id="m" width="10" height="10" patternTransform="scale(10)" patternUnits="userSpaceOnUse"><circle cx="2.567" cy=".81" r=".45"/><circle cx="3.048" cy="2.33" r=".45"/><circle cx="4.418" cy="2.415" r=".45"/><circle cx="1.844" cy="3.029" r=".45"/><circle cx="6.08" cy="1.363" r=".45"/><circle cx="5.819" cy="4.413" r=".45"/><circle cx="4.305" cy="4.048" r=".45"/><circle cx="5.541" cy="3.045" r=".45"/><circle cx="4.785" cy="5.527" r=".45"/><circle cx="2.667" cy="5.184" r=".45"/><circle cx="7.965" cy="1.448" r=".45"/><circle cx="7.047" cy="5.049" r=".45"/><circle cx="4.34" cy=".895" r=".45"/><circle cx="7.125" cy=".34" r=".45"/><circle cx="9.553" cy="1.049" r=".45"/><circle cx="7.006" cy="2.689" r=".45"/><circle cx="8.909" cy="2.689" r=".45"/><circle cx="9.315" cy="4.407" r=".45"/><circle cx="7.82" cy="3.87" r=".45"/><circle cx="8.27" cy="5.948" r=".45"/><circle cx="7.973" cy="7.428" r=".45"/><circle cx="9.342" cy="8.072" r=".45"/><circle cx="8.206" cy="9.315" r=".45"/><circle cx="9.682" cy="9.475" r=".45"/><circle cx="9.688" cy="6.186" r=".45"/><circle cx="3.379" cy="6.296" r=".45"/><circle cx="2.871" cy="8.204" r=".45"/><circle cx="4.59" cy="8.719" r=".45"/><circle cx="3.181" cy="9.671" r=".45"/><circle cx="5.734" cy="7.315" r=".45"/><circle cx="6.707" cy="6.513" r=".45"/><circle cx="5.73" cy="9.67" r=".45"/><circle cx="6.535" cy="8.373" r=".45"/><circle cx="4.37" cy="7.154" r=".45"/><circle cx=".622" cy="7.25" r=".45"/><circle cx=".831" cy="5.679" r=".45"/><circle cx="1.257" cy="8.519" r=".45"/><circle cx="1.989" cy="6.877" r=".45"/><circle cx=".374" cy="3.181" r=".45"/><circle cx="1.166" cy="1.664" r=".45"/><circle cx="1.151" cy=".093" r=".45"/><circle cx="1.151" cy="10.093" r=".45"/><circle cx="1.302" cy="4.451" r=".45"/><circle cx="3.047" cy="3.763" r=".45"/></pattern><pattern id="V" xlink:href="#n" patternTransform="matrix(1.439 0 0 1.0602 -9.945 857.77)"/><pattern id="n" width="10" height="10" patternTransform="scale(10)" patternUnits="userSpaceOnUse"><circle cx="2.567" cy=".81" r=".45"/><circle cx="3.048" cy="2.33" r=".45"/><circle cx="4.418" cy="2.415" r=".45"/><circle cx="1.844" cy="3.029" r=".45"/><circle cx="6.08" cy="1.363" r=".45"/><circle cx="5.819" cy="4.413" r=".45"/><circle cx="4.305" cy="4.048" r=".45"/><circle cx="5.541" cy="3.045" r=".45"/><circle cx="4.785" cy="5.527" r=".45"/><circle cx="2.667" cy="5.184" r=".45"/><circle cx="7.965" cy="1.448" r=".45"/><circle cx="7.047" cy="5.049" r=".45"/><circle cx="4.34" cy=".895" r=".45"/><circle cx="7.125" cy=".34" r=".45"/><circle cx="9.553" cy="1.049" r=".45"/><circle cx="7.006" cy="2.689" r=".45"/><circle cx="8.909" cy="2.689" r=".45"/><circle cx="9.315" cy="4.407" r=".45"/><circle cx="7.82" cy="3.87" r=".45"/><circle cx="8.27" cy="5.948" r=".45"/><circle cx="7.973" cy="7.428" r=".45"/><circle cx="9.342" cy="8.072" r=".45"/><circle cx="8.206" cy="9.315" r=".45"/><circle cx="9.682" cy="9.475" r=".45"/><circle cx="9.688" cy="6.186" r=".45"/><circle cx="3.379" cy="6.296" r=".45"/><circle cx="2.871" cy="8.204" r=".45"/><circle cx="4.59" cy="8.719" r=".45"/><circle cx="3.181" cy="9.671" r=".45"/><circle cx="5.734" cy="7.315" r=".45"/><circle cx="6.707" cy="6.513" r=".45"/><circle cx="5.73" cy="9.67" r=".45"/><circle cx="6.535" cy="8.373" r=".45"/><circle cx="4.37" cy="7.154" r=".45"/><circle cx=".622" cy="7.25" r=".45"/><circle cx=".831" cy="5.679" r=".45"/><circle cx="1.257" cy="8.519" r=".45"/><circle cx="1.989" cy="6.877" r=".45"/><circle cx=".374" cy="3.181" r=".45"/><circle cx="1.166" cy="1.664" r=".45"/><circle cx="1.151" cy=".093" r=".45"/><circle cx="1.151" cy="10.093" r=".45"/><circle cx="1.302" cy="4.451" r=".45"/><circle cx="3.047" cy="3.763" r=".45"/></pattern><radialGradient id="ah" cx="90.344" cy="1017.4" r="5.022" gradientTransform="matrix(1 0 0 1.5379 0 -547.25)" gradientUnits="userSpaceOnUse" xlink:href="#q"/><radialGradient id="ag" cx="79.738" cy="1036.4" r="5.022" gradientTransform="matrix(1 0 0 1.5379 0 -557.51)" gradientUnits="userSpaceOnUse" xlink:href="#q"/><radialGradient id="ac" cx="75.318" cy="1020.4" r="5.022" gradientTransform="matrix(1 0 0 1.5379 0 -548.87)" gradientUnits="userSpaceOnUse" xlink:href="#q"/><radialGradient id="af" cx="59.535" cy="1032" r="5.022" gradientTransform="matrix(1 0 0 1.5379 0 -555.13)" gradientUnits="userSpaceOnUse" xlink:href="#q"/><radialGradient id="ab" cx="51.58" cy="1018.1" r="5.022" gradientTransform="matrix(1 0 0 1.5379 0 -547.66)" gradientUnits="userSpaceOnUse" xlink:href="#q"/><radialGradient id="ae" cx="39.458" cy="1034.4" r="5.022" gradientTransform="matrix(1 0 0 1.5379 0 -556.42)" gradientUnits="userSpaceOnUse" xlink:href="#q"/><radialGradient id="P" cx="125.28" cy="1032.4" r="4.584" gradientTransform="matrix(1 0 0 1.6171 -118 -657.89)" gradientUnits="userSpaceOnUse" xlink:href="#p"/><radialGradient id="t" cx="125.28" cy="1032.4" r="4.584" gradientTransform="matrix(1 0 0 1.6171 -114.55 -636.23)" gradientUnits="userSpaceOnUse" xlink:href="#p"/><radialGradient id="L" cx="125.28" cy="1032.4" r="4.584" gradientTransform="matrix(1 0 0 1.6171 -102.68 -660.73)" gradientUnits="userSpaceOnUse" xlink:href="#p"/><radialGradient id="v" cx="125.28" cy="1032.4" r="4.584" gradientTransform="matrix(1 0 0 1.6171 -97.676 -644.23)" gradientUnits="userSpaceOnUse" xlink:href="#p"/><radialGradient id="J" cx="125.28" cy="1032.4" r="4.584" gradientTransform="matrix(1 0 0 1.6171 -83.426 -657.98)" gradientUnits="userSpaceOnUse" xlink:href="#p"/><radialGradient id="r" cx="125.28" cy="1032.4" r="4.584" gradientTransform="matrix(1 0 0 1.6171 -75.051 -647.1)" gradientUnits="userSpaceOnUse" xlink:href="#p"/><radialGradient id="H" cx="125.28" cy="1032.4" r="4.584" gradientTransform="matrix(1 0 0 1.6171 -61.926 -655.6)" gradientUnits="userSpaceOnUse" xlink:href="#p"/><radialGradient id="F" cx="125.28" cy="1032.4" r="4.584" gradientTransform="matrix(1 0 0 1.6171 -39.801 -663.23)" gradientUnits="userSpaceOnUse" xlink:href="#p"/><radialGradient id="D" cx="125.28" cy="1032.4" r="4.584" gradientTransform="matrix(1 0 0 1.6171 -36.176 -648.1)" gradientUnits="userSpaceOnUse" xlink:href="#p"/><radialGradient id="B" cx="125.28" cy="1032.4" r="4.584" gradientTransform="matrix(1 0 0 1.6171 -51.301 -644.85)" gradientUnits="userSpaceOnUse" xlink:href="#p"/><radialGradient id="z" cx="125.28" cy="1032.4" r="4.584" gradientTransform="matrix(1 0 0 1.6171 -66.926 -633.35)" gradientUnits="userSpaceOnUse" xlink:href="#p"/><radialGradient id="x" cx="125.28" cy="1032.4" r="4.584" gradientTransform="matrix(1 0 0 1.6171 -87.176 -630.98)" gradientUnits="userSpaceOnUse" xlink:href="#p"/><radialGradient id="N" cx="125.28" cy="1032.4" r="4.584" gradientTransform="matrix(1 0 0 1.6171 -46.801 -628.98)" gradientUnits="userSpaceOnUse" xlink:href="#p"/><radialGradient id="ai" cx="8.774" cy="1007.6" r="5.022" gradientTransform="matrix(1 0 0 1.5379 0 -542.02)" gradientUnits="userSpaceOnUse" xlink:href="#q"/><radialGradient id="W" cx="24.043" cy="1004.7" r="5.022" gradientTransform="matrix(1 0 0 1.5379 0 -540.44)" gradientUnits="userSpaceOnUse" xlink:href="#q"/><radialGradient id="X" cx="43.246" cy="1007.3" r="5.022" gradientTransform="matrix(1 0 0 1.5379 0 -541.8)" gradientUnits="userSpaceOnUse" xlink:href="#q"/><radialGradient id="Y" cx="64.585" cy="1009.7" r="5.022" gradientTransform="matrix(1 0 0 1.5379 0 -543.09)" gradientUnits="userSpaceOnUse" xlink:href="#q"/><radialGradient id="Z" cx="86.682" cy="1002" r="5.022" gradientTransform="matrix(1 0 0 1.5379 0 -538.95)" gradientUnits="userSpaceOnUse" xlink:href="#q"/><radialGradient id="ad" cx="12.31" cy="1029.1" r="5.022" gradientTransform="matrix(1 0 0 1.5379 0 -553.57)" gradientUnits="userSpaceOnUse" xlink:href="#q"/><radialGradient id="aa" cx="29.104" cy="1021" r="5.022" gradientTransform="matrix(1 0 0 1.5379 0 -549.22)" gradientUnits="userSpaceOnUse" xlink:href="#q"/><linearGradient id="R" x1="40.797" x2="61.89" y1="1057.8" y2="1097.2" gradientTransform="translate(-7.34 -168.33)" gradientUnits="userSpaceOnUse"><stop stop-color="#6c93ba" offset="0"/><stop stop-color="#8c969f" offset="1"/></linearGradient><linearGradient id="S" x1="166.59" x2="67.383" y1="1080.8" y2="1072.4" gradientTransform="translate(-71.354 -158.11)" gradientUnits="userSpaceOnUse" xlink:href="#o"/><linearGradient id="o"><stop stop-color="#d7d7d7" stop-opacity=".7" offset="0"/><stop stop-color="#8c969f" stop-opacity=".728" offset="1"/></linearGradient><linearGradient id="T" x1="137.96" x2="136.93" y1="1020.9" y2="1038.8" gradientTransform="translate(-92.614 -138.49)" gradientUnits="userSpaceOnUse" xlink:href="#o"/><linearGradient id="p"><stop stop-color="#e4f1ff" offset="0"/><stop stop-color="#d2e8ff" offset=".198"/><stop stop-color="#8dc5ff" offset=".503"/><stop stop-color="#83c0ff" offset=".704"/><stop stop-color="#3598ff" offset="1"/></linearGradient><linearGradient id="q"><stop stop-color="#8fa6e0" offset="0"/><stop stop-color="#576899" offset="1"/></linearGradient></defs><path d="M56.668 1010.5s-4.586 3.74-6.68 5.958c-.953 1.01-2.103 2.982-2.397 4.34-.449 2.076.822 3.881 2.421 4.407 1.887.62 3.255-1.269 3.988-2.73.26-.518.345-1.829.068-3.004-.243-1.032-.837-1.973-.847-1.992 0 0-.05-1.603.468-2.353.608-.88 1.87-2.308 2.619-3.428.376-.563.36-1.198.36-1.198z" fill="url(#r)" fill-rule="evenodd" transform="translate(-.21 -940.24)"/><path d="M56.507 1010.5s-4.586 3.74-6.68 5.958c-.953 1.01-2.103 2.982-2.397 4.34-.449 2.076.822 3.881 2.421 4.407 1.887.62 3.255-1.269 3.988-2.73.26-.518.345-1.829.068-3.004-.243-1.031-.837-1.973-.848-1.992 0 0-.05-1.603.468-2.353.61-.88 1.872-2.308 2.62-3.428.376-.563.36-1.198.36-1.198z" fill="url(#s)" fill-rule="evenodd" opacity=".348" transform="translate(-.21 -940.24)"/><path d="M17.168 1021.4s-4.586 3.74-6.68 5.958c-.953 1.01-2.103 2.982-2.397 4.34-.449 2.076.822 3.881 2.421 4.407 1.887.62 3.255-1.269 3.988-2.73.26-.518.345-1.829.068-3.004-.243-1.032-.837-1.973-.847-1.992 0 0-.05-1.603.468-2.353.608-.88 1.87-2.308 2.619-3.428.376-.563.36-1.198.36-1.198z" fill="url(#t)" fill-rule="evenodd" transform="translate(-.21 -940.24)"/><path d="M17.238 1021.5s-4.586 3.74-6.68 5.958c-.953 1.01-2.103 2.982-2.397 4.34-.449 2.076.822 3.881 2.421 4.407 1.887.62 3.255-1.269 3.988-2.73.26-.518.345-1.829.068-3.004-.243-1.032-.837-1.973-.848-1.992 0 0-.05-1.603.468-2.353.61-.88 1.872-2.308 2.62-3.428.376-.563.36-1.198.36-1.198z" fill="url(#u)" fill-rule="evenodd" opacity=".351" transform="translate(-.21 -940.24)"/><path d="M34.043 1013.4s-4.586 3.74-6.68 5.958c-.953 1.01-2.103 2.982-2.397 4.34-.449 2.076.822 3.881 2.421 4.407 1.887.62 3.255-1.269 3.988-2.73.26-.518.345-1.829.068-3.004-.243-1.032-.837-1.973-.847-1.992 0 0-.05-1.603.468-2.353.608-.88 1.87-2.308 2.619-3.428.376-.563.36-1.198.36-1.198z" fill="url(#v)" fill-rule="evenodd" transform="translate(-.21 -940.24)"/><path d="M34.031 1013.4s-4.586 3.74-6.68 5.958c-.953 1.01-2.103 2.982-2.397 4.34-.449 2.076.822 3.881 2.421 4.407 1.887.62 3.255-1.269 3.988-2.73.26-.518.345-1.829.068-3.004-.243-1.032-.837-1.973-.848-1.992 0 0-.05-1.603.468-2.353.61-.88 1.872-2.308 2.62-3.428.376-.563.36-1.198.36-1.198z" fill="url(#w)" fill-rule="evenodd" opacity=".348" transform="translate(-.21 -940.24)"/><path d="M44.543 1026.7s-4.586 3.74-6.68 5.958c-.953 1.01-2.103 2.982-2.397 4.34-.449 2.076.822 3.881 2.421 4.407 1.887.62 3.255-1.269 3.988-2.73.26-.518.345-1.829.068-3.004-.243-1.032-.837-1.973-.847-1.992 0 0-.05-1.603.468-2.353.608-.88 1.87-2.308 2.619-3.428.376-.563.36-1.198.36-1.198z" fill="url(#x)" fill-rule="evenodd" transform="translate(-.21 -940.24)"/><path d="M44.385 1026.8s-4.586 3.74-6.68 5.958c-.953 1.01-2.103 2.982-2.397 4.34-.449 2.076.822 3.881 2.421 4.407 1.887.62 3.255-1.269 3.988-2.73.26-.518.345-1.829.068-3.004-.243-1.032-.837-1.973-.848-1.992 0 0-.05-1.603.468-2.353.61-.88 1.872-2.308 2.62-3.428.376-.563.36-1.198.36-1.198z" fill="url(#y)" fill-rule="evenodd" opacity=".361" transform="translate(-.21 -940.24)"/><path d="M64.793 1024.3s-4.586 3.74-6.68 5.958c-.953 1.01-2.103 2.982-2.397 4.34-.449 2.076.822 3.881 2.421 4.407 1.887.62 3.255-1.269 3.989-2.73.26-.518.344-1.829.067-3.004-.243-1.032-.837-1.973-.847-1.992 0 0-.05-1.603.468-2.353.608-.88 1.87-2.308 2.619-3.428.376-.563.36-1.198.36-1.198z" fill="url(#z)" fill-rule="evenodd" transform="translate(-.21 -940.24)"/><path d="M64.462 1024.4s-4.586 3.74-6.68 5.958c-.953 1.01-2.103 2.982-2.397 4.34-.449 2.076.822 3.881 2.421 4.407 1.887.62 3.255-1.269 3.988-2.73.26-.518.345-1.829.068-3.004-.243-1.032-.837-1.973-.848-1.992 0 0-.05-1.603.468-2.353.61-.88 1.872-2.308 2.62-3.428.376-.563.36-1.198.36-1.198z" fill="url(#A)" fill-rule="evenodd" opacity=".354" transform="translate(-.21 -940.24)"/><path d="M80.418 1012.8s-4.586 3.74-6.68 5.958c-.953 1.01-2.103 2.982-2.397 4.34-.449 2.076.822 3.881 2.421 4.407 1.887.62 3.255-1.269 3.989-2.73.26-.518.344-1.829.067-3.004-.243-1.032-.837-1.973-.847-1.992 0 0-.05-1.603.468-2.353.608-.88 1.87-2.308 2.619-3.428.376-.563.36-1.198.36-1.198z" fill="url(#B)" fill-rule="evenodd" transform="translate(-.21 -940.24)"/><path d="M80.246 1012.7s-4.586 3.74-6.68 5.958c-.953 1.01-2.103 2.982-2.397 4.34-.449 2.076.822 3.881 2.421 4.407 1.887.62 3.255-1.269 3.988-2.73.26-.518.345-1.829.068-3.004-.243-1.032-.837-1.973-.848-1.992 0 0-.05-1.603.468-2.353.61-.88 1.872-2.308 2.62-3.428.376-.563.36-1.198.36-1.198z" fill="url(#C)" fill-rule="evenodd" opacity=".345" transform="translate(-.21 -940.24)"/><path d="M95.543 1009.5s-4.586 3.74-6.68 5.958c-.953 1.01-2.103 2.982-2.397 4.34-.449 2.076.822 3.881 2.421 4.407 1.887.62 3.255-1.269 3.989-2.73.26-.518.344-1.829.067-3.004-.243-1.032-.837-1.973-.847-1.992 0 0-.05-1.603.468-2.353.608-.88 1.87-2.308 2.619-3.428.376-.563.36-1.198.36-1.198z" fill="url(#D)" fill-rule="evenodd" transform="translate(-.21 -940.24)"/><path d="M95.272 1009.7s-4.586 3.74-6.68 5.958c-.953 1.01-2.103 2.982-2.397 4.34-.449 2.076.822 3.881 2.421 4.407 1.887.62 3.255-1.269 3.988-2.73.26-.518.345-1.829.068-3.004-.243-1.032-.837-1.973-.848-1.992 0 0-.05-1.603.468-2.353.61-.88 1.872-2.308 2.62-3.428.376-.563.36-1.198.36-1.198z" fill="url(#E)" fill-rule="evenodd" opacity=".351" transform="translate(-.21 -940.24)"/><path d="M91.918 994.41s-4.586 3.74-6.68 5.958c-.953 1.01-2.103 2.982-2.397 4.34-.449 2.076.822 3.881 2.421 4.407 1.887.62 3.255-1.269 3.989-2.73.26-.518.344-1.829.067-3.004-.243-1.032-.837-1.973-.847-1.992 0 0-.05-1.603.468-2.353.608-.88 1.87-2.308 2.619-3.428.376-.563.36-1.198.36-1.198z" fill="url(#F)" fill-rule="evenodd" transform="translate(-.21 -940.24)"/><path d="M91.61 994.31s-4.586 3.74-6.68 5.958c-.953 1.01-2.103 2.982-2.397 4.34-.449 2.076.822 3.881 2.421 4.407 1.887.62 3.255-1.269 3.988-2.73.26-.518.345-1.829.068-3.004-.243-1.031-.837-1.973-.848-1.992 0 0-.05-1.603.468-2.353.61-.88 1.872-2.308 2.62-3.428.376-.563.36-1.198.36-1.198z" fill="url(#G)" fill-rule="evenodd" opacity=".351" transform="translate(-.21 -940.24)"/><path d="M69.793 1002s-4.586 3.74-6.68 5.958c-.953 1.01-2.103 2.982-2.397 4.34-.449 2.076.822 3.881 2.421 4.407 1.887.62 3.255-1.269 3.989-2.73.26-.518.344-1.829.067-3.004-.243-1.032-.837-1.973-.847-1.992 0 0-.05-1.603.468-2.353.608-.88 1.87-2.308 2.619-3.428.376-.563.36-1.198.36-1.198z" fill="url(#H)" fill-rule="evenodd" transform="translate(-.21 -940.24)"/><path d="M69.513 1002s-4.586 3.74-6.68 5.958c-.953 1.01-2.103 2.982-2.397 4.34-.449 2.076.822 3.881 2.421 4.407 1.887.62 3.255-1.269 3.988-2.73.26-.518.345-1.829.068-3.004-.243-1.031-.837-1.973-.848-1.992 0 0-.05-1.603.468-2.353.61-.88 1.872-2.308 2.62-3.428.376-.563.36-1.198.36-1.198z" fill="url(#I)" fill-rule="evenodd" opacity=".345" transform="translate(-.21 -940.24)"/><path d="M48.293 999.66s-4.586 3.74-6.68 5.958c-.953 1.01-2.103 2.982-2.397 4.34-.449 2.076.822 3.881 2.421 4.407 1.887.62 3.255-1.269 3.988-2.73.26-.518.345-1.829.068-3.004-.243-1.032-.837-1.973-.847-1.992 0 0-.05-1.603.468-2.353.608-.88 1.87-2.308 2.619-3.428.376-.563.36-1.198.36-1.198z" fill="url(#J)" fill-rule="evenodd" transform="translate(-.21 -940.24)"/><path d="M48.173 999.61s-4.586 3.74-6.68 5.958c-.953 1.01-2.103 2.982-2.397 4.34-.449 2.076.822 3.881 2.421 4.407 1.887.62 3.255-1.269 3.988-2.73.26-.518.345-1.829.068-3.004-.243-1.031-.837-1.973-.848-1.992 0 0-.05-1.603.468-2.353.61-.88 1.872-2.308 2.62-3.428.376-.563.36-1.198.36-1.198z" fill="url(#K)" fill-rule="evenodd" opacity=".357" transform="translate(-.21 -940.24)"/><path d="M29.043 996.91s-4.586 3.74-6.68 5.958c-.953 1.01-2.103 2.982-2.397 4.34-.449 2.076.822 3.881 2.421 4.407 1.887.62 3.255-1.269 3.988-2.73.26-.518.345-1.829.068-3.004-.243-1.032-.837-1.973-.847-1.992 0 0-.05-1.603.468-2.353.608-.88 1.87-2.308 2.619-3.428.376-.563.36-1.198.36-1.198z" fill="url(#L)" fill-rule="evenodd" transform="translate(-.21 -940.24)"/><path d="M28.971 997.05s-4.586 3.74-6.68 5.958c-.953 1.01-2.103 2.982-2.397 4.34-.449 2.076.822 3.881 2.421 4.407 1.887.62 3.255-1.269 3.988-2.73.26-.518.345-1.829.068-3.004-.243-1.031-.837-1.973-.848-1.992 0 0-.05-1.603.468-2.353.61-.88 1.872-2.308 2.62-3.428.376-.563.36-1.198.36-1.198z" fill="url(#M)" fill-rule="evenodd" opacity=".342" transform="translate(-.21 -940.24)"/><path d="M84.918 1028.7s-4.586 3.74-6.68 5.958c-.953 1.01-2.103 2.982-2.397 4.34-.449 2.076.822 3.881 2.421 4.407 1.887.62 3.255-1.269 3.989-2.73.26-.518.344-1.829.067-3.004-.243-1.032-.837-1.973-.847-1.992 0 0-.05-1.603.468-2.353.608-.88 1.87-2.308 2.619-3.428.376-.563.36-1.198.36-1.198z" fill="url(#N)" fill-rule="evenodd" transform="translate(-.21 -940.24)"/><path d="M84.665 1028.8s-4.586 3.74-6.68 5.958c-.953 1.01-2.103 2.982-2.397 4.34-.449 2.076.822 3.881 2.421 4.407 1.887.62 3.255-1.269 3.988-2.73.26-.518.345-1.829.068-3.004-.243-1.032-.837-1.973-.848-1.992 0 0-.05-1.603.468-2.353.61-.88 1.872-2.308 2.62-3.428.376-.563.36-1.198.36-1.198z" fill="url(#O)" fill-rule="evenodd" opacity=".357" transform="translate(-.21 -940.24)"/><path d="M13.719 999.75s-4.586 3.74-6.68 5.958c-.953 1.01-2.103 2.982-2.397 4.34-.449 2.076.822 3.881 2.421 4.407 1.887.62 3.255-1.269 3.988-2.73.26-.518.345-1.829.068-3.004-.243-1.032-.837-1.973-.847-1.992 0 0-.05-1.603.468-2.353.608-.88 1.87-2.308 2.619-3.428.376-.563.36-1.198.36-1.198z" fill="url(#P)" fill-rule="evenodd" transform="translate(-.21 -940.24)"/><path d="M13.702 999.99s-4.586 3.74-6.68 5.958c-.953 1.01-2.103 2.982-2.397 4.34-.449 2.076.822 3.881 2.421 4.407 1.887.62 3.255-1.269 3.988-2.73.26-.518.345-1.829.068-3.004-.243-1.031-.837-1.973-.848-1.992 0 0-.05-1.603.468-2.353.61-.88 1.872-2.308 2.62-3.428.376-.563.36-1.198.36-1.198z" fill="url(#Q)" fill-rule="evenodd" opacity=".351" transform="translate(-.21 -940.24)"/><path d="M61.151 871.02c-9.242 0-17.509 7.566-20.728 16.901-2.311-1.09-4.515-2.648-7.208-2.648-9.076 0-16.992 7.463-18.644 16.582-1.163-.31-2.202-.27-3.456-.27-8.168 0-14.603 6.189-14.603 14.776s6.616 15.555 14.784 15.555a14.2 14.2 0 0 0 7.097-1.907c3.633 3.897 9.537 6.44 16.2 6.44 5.366 0 10.228-1.648 13.82-4.324 3.085 3.46 7.404 5.604 12.188 5.604 6.215 0 11.647-3.629 14.607-9.046 2.038 1.226 4.34 1.93 6.763 1.93 8.47 0 15.334-8.41 15.334-18.788 0-9.993-6.373-18.15-14.41-18.74-1.361-12.447-10.58-22.067-21.743-22.067z" fill="url(#R)" stroke="red" stroke-linecap="round" stroke-linejoin="round" stroke-width=".416" transform="matrix(.91674 0 0 .79217 10.695 -685.08)"/><path d="M82.543 923.98c-2.422.087-6.6-.795-8.637-2.02-.498 2.486-.607 4.2-2.427 6.294-2.623 3.018-6.904 4.804-10.572 4.804-2.531 0-7.025-1.02-9.64-2.66-2.327-1.46-3.456-4.343-4.91-5.972-1.339 2.447-1.995 3.241-3.895 4.74-2.347 1.851-4.509 2.79-7.474 2.79-6.663 0-8.484-3.483-11.351-7.656-2.105 1.211-8.308 3.125-10.876 3.125-4.275 0-10.941-4.997-12.663-10.957-.859-2.972-.808-6.72-.867-8.871-2.075 3.256-3.269 9.922-1.898 14.41 1.83 5.99 9.106 9.582 13.471 9.582a14.2 14.2 0 0 0 7.097-1.908c3.633 3.897 9.538 6.44 16.201 6.44 5.367 0 10.228-1.648 13.82-4.324 3.086 3.46 7.406 5.604 12.19 5.604 6.214 0 11.646-3.628 14.606-9.045 2.038 1.226 4.339 1.931 6.762 1.931 4.896 0 12.273-3.819 14.462-10.779 1.598-5.08.822-13.24-1.32-17.172.102 1.34-.512 4.962-1.309 8.726-1.473 6.958-4.553 12.696-10.77 12.918z" fill="url(#S)" transform="matrix(.91674 0 0 .79217 10.695 -685.08)"/><path d="M61.993 872.13s-7.267 2.584-10.404 6.065c-3.265 3.622-6.081 7.678-6.895 11.339-.653 2.934-1.753 8.238-.664 12.096 1.427 5.056 4.198 8.485 4.198 8.485s-2.681-1.387-4.865-3.993c-1.83-2.184-3.176-5.384-3.586-7.8-1.012-5.962 1.266-12.342 4.247-17.604 2.592-4.574 7.729-7.426 11.781-8.426 3.526-.87 6.188-.162 6.188-.162z" fill="url(#T)" fill-rule="evenodd" transform="matrix(.91674 0 0 .79217 10.695 -685.08)"/><path d="M82.543 923.98c-2.422.087-6.6-.795-8.637-2.02-.498 2.486-.607 4.2-2.427 6.294-2.623 3.018-6.904 4.804-10.572 4.804-2.531 0-7.025-1.02-9.64-2.66-2.327-1.46-3.456-4.343-4.91-5.972-1.339 2.447-1.995 3.241-3.895 4.74-2.347 1.851-4.509 2.79-7.474 2.79-6.663 0-8.484-3.483-11.351-7.656-2.105 1.211-8.308 3.125-10.876 3.125-4.275 0-10.941-4.997-12.663-10.957-.859-2.972-.808-6.72-.867-8.871-2.075 3.256-3.269 9.922-1.898 14.41 1.83 5.99 9.106 9.582 13.471 9.582a14.2 14.2 0 0 0 7.097-1.908c3.633 3.897 9.538 6.44 16.201 6.44 5.367 0 10.228-1.648 13.82-4.324 3.086 3.46 7.406 5.604 12.19 5.604 6.214 0 11.646-3.629 14.606-9.045 2.038 1.225 4.339 1.93 6.762 1.93 4.896 0 12.273-3.818 14.462-10.778 1.598-5.08.822-13.24-1.32-17.172.102 1.34-.512 4.961-1.309 8.726-1.473 6.958-4.553 12.696-10.77 12.918z" fill="url(#U)" opacity=".379" transform="matrix(.91674 0 0 .79217 10.695 -685.08)"/><path d="M61.993 872.13s-7.267 2.584-10.404 6.065c-3.265 3.622-6.081 7.679-6.895 11.339-.653 2.935-1.753 8.238-.664 12.096 1.427 5.056 4.198 8.485 4.198 8.485s-2.681-1.387-4.865-3.993c-1.83-2.184-3.176-5.384-3.586-7.8-1.012-5.962 1.266-12.341 4.247-17.603 2.592-4.575 7.729-7.427 11.781-8.427 3.526-.87 6.188-.162 6.188-.162z" fill="url(#V)" fill-rule="evenodd" opacity=".361" transform="matrix(.91674 0 0 .79217 10.695 -685.08)"/><path d="M60.99 869.78c-.138 0-.274.025-.405.072-9.201.19-17.55 7.802-21.139 16.83-2.184-.866-3.81-1.685-6.264-1.685-9.24 0-17.514 7.057-19.73 16.17-.93-.174-1.923-.43-2.892-.43-8.836 0-15.476 6.406-15.476 15.75 0 9.345 7.214 16.922 16.05 16.922 2.472 0 5.553-1.018 7.65-2.074 3.941 3.842 9.038 6.609 15.647 6.609 5.254 0 9.588-1.884 13.325-4.422 3.255 3.28 7.644 5.01 12.428 5.01 6.272 0 11.796-4.071 15.078-9.318 1.963.994 4.471 2.342 6.737 2.342 9.247 0 15.965-8.577 15.965-19.604 0-10.187-5.883-18.542-14.143-19.79-1.773-12.638-11.27-22.383-22.832-22.383zm0 2.733c10.015 0 18.387 8.252 20.249 19.28-.153.017-.287.02-.455.04-.831.1-1.805.3-2.845.59-2.08.583-4.41 1.513-6.262 2.854-3.2 2.318-4.623 5.566-5.123 9.746-.256 2.136-.207 4.995.137 5.885.546-.486.818-3.615 1.128-5.17.69-3.462 2.813-6.414 5.268-8.192 1.467-1.062 3.612-1.951 5.488-2.477a17.322 17.322 0 0 1 2.49-.518c.677-.081 1.238.012 1.104-.036l.022-.07c.144.075.299.119.458.13 7.294.535 13.228 8.011 13.228 17.377 0 9.726-6.375 17.422-14.068 17.422-2.196 0-4.282-.638-6.145-1.76-.6-.361-1.36-.14-1.709.5-2.74 5.017-7.757 8.374-13.515 8.374-4.433 0-8.928-2.325-11.08-4.748-2.153-2.423-2.92-3.921-2.12-7.717.358-1.699 1.35-4.702 3.168-5.432 1.916-.77 3.395-.546 5.173-.83-2.007-1.51-4.623-1.342-6.08-.53-2.211 1.233-4.147 3.425-4.729 6.186-.807 3.833.744 7.422 2.033 9.336-3.221 2.03-7.82 2.455-12.373 2.455-5.712 0-11.495-1.439-14.896-4.436 1.177-.964 3.002-3.103 4.292-5.07 1.513-2.308 1.411-4.836 1.32-7.238-.549-2.167-.69-3.547-1.835-5.292-.074 1.65.573 3.698.647 5.265.072 1.937-.18 4.66-1.305 6.375-2.04 3.11-5.228 4.195-5.474 4.342-1.82.957-3.87 1.522-6.048 1.522-7.5 0-13.515-6.36-13.515-14.189 0-7.83 6.015-14.189 13.515-14.189 1.158 0 2.277.143 3.337.425.701.185 1.404-.299 1.544-1.064 1.535-8.476 8.557-14.894 17.04-14.894 2.094 0 4.086.396 5.933 1.103-.043.158-.091.288-.131.461-.209.9-.387 2.007-.511 3.224-.247 2.434-.293 5.265.26 7.62.774 3.303 3.202 5.993 5.284 8.36 2.304 1.828 3.063 2.446 5.677 3.717-1.778-2.015-3.327-3.349-4.639-4.84-1.892-2.167-3.25-5.278-3.866-7.906-.417-1.78-.423-4.433-.198-6.653.113-1.11.278-2.12.45-2.86.085-.369.175-.672.245-.864.07-.192.175-.282.012-.105l-.02-.022c.113-.13.201-.282.26-.448 3.05-8.847 10.495-15.04 19.18-15.04z" color="#000" fill="#273c65" style="block-progression:tb;isolation:auto;mix-blend-mode:normal;text-decoration-color:#000;text-decoration-line:none;text-decoration-style:solid;text-indent:0;text-transform:none;white-space:normal" transform="matrix(.91674 0 0 .79217 10.695 -685.08)"/><path d="M26.121 998.51c-1.54.962-3.2 2.298-4.37 3.537-1.103 1.17-2.261 3.11-2.618 4.76-.545 2.518.97 4.767 3.01 5.437 1.255.412 2.382.072 3.276-.623.893-.694 1.455-1.768 1.67-2.813.2-.975-.015-2.135-.351-3.081-.428-1.204-1.297-2.278-1.576-2.011 0 0 .578 1.26.706 2.175.143 1.022.1 2.198-.097 2.869-.16.544-.727 1.378-1.085 1.676-.533.443-1.604.845-2.235.638-1.16-.381-2.129-2.13-1.775-3.765.23-1.063 1.563-3.196 2.365-4.046.924-.98 2.3-2.438 3.588-3.624 1.087-1 2.714-2.519 2.395-2.65-.18-.155-2.26 1.119-2.903 1.52z" color="#000" fill="url(#W)" fill-rule="evenodd" style="block-progression:tb;isolation:auto;mix-blend-mode:normal;text-decoration-color:#000;text-decoration-line:none;text-decoration-style:solid;text-indent:0;text-transform:none;white-space:normal" transform="translate(-.21 -940.24)"/><path d="M45.324 1001.1c-1.54.962-3.2 2.299-4.37 3.537-1.103 1.17-2.261 3.11-2.618 4.76-.545 2.518.97 4.767 3.01 5.437 1.255.412 2.382.07 3.276-.623.893-.694 1.455-1.768 1.67-2.813.2-.974-.015-2.135-.351-3.081-.428-1.203-1.297-2.278-1.576-2.011 0 0 .578 1.26.706 2.175.143 1.022.1 2.198-.097 2.869-.16.544-.727 1.378-1.085 1.676-.533.443-1.604.846-2.235.638-1.16-.381-2.129-2.13-1.775-3.765.23-1.063 1.563-3.196 2.365-4.046.924-.98 2.3-2.438 3.588-3.624 1.087-1 2.714-2.519 2.395-2.65-.18-.155-2.26 1.119-2.903 1.521z" color="#000" fill="url(#X)" fill-rule="evenodd" style="block-progression:tb;isolation:auto;mix-blend-mode:normal;text-decoration-color:#000;text-decoration-line:none;text-decoration-style:solid;text-indent:0;text-transform:none;white-space:normal" transform="translate(-.21 -940.24)"/><path d="M66.663 1003.5c-1.54.962-3.2 2.298-4.37 3.537-1.103 1.17-2.261 3.11-2.618 4.76-.545 2.518.97 4.767 3.01 5.437 1.255.412 2.382.07 3.276-.623.893-.694 1.455-1.768 1.67-2.813.2-.975-.015-2.135-.351-3.081-.428-1.204-1.297-2.278-1.576-2.011 0 0 .578 1.26.706 2.175.143 1.022.1 2.198-.097 2.869-.16.544-.727 1.378-1.085 1.676-.533.443-1.604.845-2.235.638-1.16-.381-2.129-2.13-1.775-3.766.23-1.062 1.563-3.195 2.365-4.045.924-.98 2.3-2.438 3.588-3.624 1.087-1 2.714-2.519 2.395-2.65-.18-.155-2.26 1.119-2.903 1.521z" color="#000" fill="url(#Y)" fill-rule="evenodd" style="block-progression:tb;isolation:auto;mix-blend-mode:normal;text-decoration-color:#000;text-decoration-line:none;text-decoration-style:solid;text-indent:0;text-transform:none;white-space:normal" transform="translate(-.21 -940.24)"/><path d="M88.76 995.77c-1.54.962-3.2 2.298-4.37 3.537-1.103 1.17-2.261 3.11-2.618 4.76-.545 2.518.97 4.767 3.01 5.437 1.255.412 2.382.07 3.276-.623.893-.694 1.455-1.768 1.67-2.813.2-.974-.015-2.135-.351-3.081-.428-1.203-1.297-2.278-1.576-2.011 0 0 .578 1.26.706 2.175.143 1.022.1 2.198-.097 2.869-.16.544-.727 1.378-1.085 1.676-.533.443-1.604.846-2.235.638-1.16-.381-2.129-2.13-1.775-3.765.23-1.063 1.563-3.196 2.365-4.046.924-.98 2.3-2.438 3.588-3.624 1.087-1 2.714-2.519 2.395-2.65-.18-.155-2.26 1.119-2.903 1.521z" color="#000" fill="url(#Z)" fill-rule="evenodd" style="block-progression:tb;isolation:auto;mix-blend-mode:normal;text-decoration-color:#000;text-decoration-line:none;text-decoration-style:solid;text-indent:0;text-transform:none;white-space:normal" transform="translate(-.21 -940.24)"/><path d="M31.182 1014.8c-1.54.962-3.2 2.298-4.37 3.537-1.103 1.17-2.261 3.11-2.618 4.76-.545 2.518.97 4.767 3.01 5.437 1.255.412 2.382.072 3.276-.623.893-.695 1.455-1.768 1.67-2.813.2-.975-.015-2.135-.351-3.081-.428-1.204-1.297-2.278-1.576-2.011 0 0 .578 1.26.706 2.175.143 1.022.1 2.198-.097 2.868-.16.545-.727 1.379-1.085 1.677-.533.443-1.604.845-2.235.638-1.16-.381-2.129-2.13-1.775-3.766.23-1.062 1.563-3.195 2.365-4.045.924-.98 2.3-2.438 3.588-3.624 1.087-1 2.714-2.519 2.395-2.65-.18-.155-2.26 1.119-2.903 1.521z" color="#000" fill="url(#aa)" fill-rule="evenodd" style="block-progression:tb;isolation:auto;mix-blend-mode:normal;text-decoration-color:#000;text-decoration-line:none;text-decoration-style:solid;text-indent:0;text-transform:none;white-space:normal" transform="translate(-.21 -940.24)"/><path d="M53.658 1011.9c-1.54.962-3.2 2.298-4.37 3.537-1.103 1.17-2.261 3.11-2.618 4.76-.545 2.518.97 4.767 3.01 5.437 1.255.412 2.382.072 3.276-.623.893-.694 1.455-1.768 1.67-2.813.2-.975-.015-2.135-.351-3.081-.428-1.204-1.297-2.278-1.576-2.011 0 0 .578 1.26.706 2.175.143 1.022.1 2.198-.097 2.868-.16.545-.727 1.379-1.085 1.677-.533.443-1.604.845-2.235.638-1.16-.381-2.129-2.13-1.775-3.766.23-1.062 1.563-3.195 2.365-4.045.924-.98 2.3-2.438 3.588-3.624 1.087-1 2.714-2.519 2.395-2.65-.18-.155-2.26 1.119-2.903 1.521z" color="#000" fill="url(#ab)" fill-rule="evenodd" style="block-progression:tb;isolation:auto;mix-blend-mode:normal;text-decoration-color:#000;text-decoration-line:none;text-decoration-style:solid;text-indent:0;text-transform:none;white-space:normal" transform="translate(-.21 -940.24)"/><path d="M77.396 1014.2c-1.54.962-3.2 2.299-4.37 3.537-1.103 1.17-2.261 3.11-2.618 4.76-.545 2.518.97 4.767 3.01 5.437 1.255.412 2.382.07 3.276-.623.893-.694 1.455-1.768 1.67-2.813.2-.975-.015-2.135-.351-3.081-.428-1.204-1.297-2.278-1.576-2.011 0 0 .578 1.26.706 2.175.143 1.022.1 2.198-.097 2.868-.16.545-.727 1.379-1.085 1.677-.533.443-1.604.845-2.235.638-1.16-.381-2.129-2.13-1.775-3.766.23-1.062 1.563-3.195 2.365-4.045.924-.98 2.3-2.438 3.588-3.624 1.087-1 2.714-2.519 2.395-2.65-.18-.155-2.26 1.119-2.903 1.521z" color="#000" fill="url(#ac)" fill-rule="evenodd" style="block-progression:tb;isolation:auto;mix-blend-mode:normal;text-decoration-color:#000;text-decoration-line:none;text-decoration-style:solid;text-indent:0;text-transform:none;white-space:normal" transform="translate(-.21 -940.24)"/><path d="M14.388 1022.9c-1.54.962-3.2 2.298-4.37 3.537-1.103 1.17-2.261 3.11-2.618 4.76-.545 2.518.97 4.767 3.01 5.437 1.255.412 2.382.072 3.276-.623.893-.694 1.455-1.768 1.67-2.813.2-.975-.015-2.135-.351-3.081-.428-1.204-1.297-2.278-1.576-2.011 0 0 .578 1.26.706 2.175.143 1.022.1 2.198-.097 2.869-.16.544-.727 1.378-1.085 1.676-.533.443-1.604.845-2.235.638-1.16-.381-2.129-2.13-1.775-3.766.23-1.062 1.563-3.195 2.365-4.045.924-.98 2.3-2.438 3.588-3.624 1.087-1 2.714-2.519 2.395-2.65-.18-.155-2.26 1.119-2.903 1.521z" color="#000" fill="url(#ad)" fill-rule="evenodd" style="block-progression:tb;isolation:auto;mix-blend-mode:normal;text-decoration-color:#000;text-decoration-line:none;text-decoration-style:solid;text-indent:0;text-transform:none;white-space:normal" transform="translate(-.21 -940.24)"/><path d="M41.536 1028.2c-1.54.962-3.2 2.298-4.37 3.537-1.103 1.17-2.261 3.11-2.618 4.76-.545 2.518.97 4.767 3.01 5.437 1.255.412 2.382.072 3.276-.623.893-.694 1.455-1.768 1.67-2.813.2-.975-.015-2.135-.351-3.081-.428-1.204-1.297-2.278-1.576-2.011 0 0 .578 1.26.706 2.175.143 1.022.1 2.198-.097 2.869-.16.544-.727 1.378-1.085 1.676-.533.443-1.604.845-2.235.638-1.16-.381-2.129-2.13-1.775-3.766.23-1.062 1.563-3.195 2.365-4.045.924-.98 2.3-2.438 3.588-3.624 1.087-1 2.714-2.519 2.395-2.65-.18-.155-2.26 1.119-2.903 1.521z" color="#000" fill="url(#ae)" fill-rule="evenodd" style="block-progression:tb;isolation:auto;mix-blend-mode:normal;text-decoration-color:#000;text-decoration-line:none;text-decoration-style:solid;text-indent:0;text-transform:none;white-space:normal" transform="translate(-.21 -940.24)"/><path d="M61.613 1025.8c-1.54.962-3.2 2.298-4.37 3.537-1.103 1.17-2.261 3.11-2.618 4.76-.545 2.518.97 4.767 3.01 5.437 1.255.412 2.382.072 3.276-.623.893-.694 1.455-1.768 1.67-2.813.2-.975-.015-2.135-.351-3.081-.428-1.204-1.297-2.278-1.576-2.011 0 0 .578 1.26.706 2.175.143 1.022.1 2.198-.097 2.868-.16.545-.727 1.379-1.085 1.677-.533.443-1.604.845-2.235.638-1.16-.381-2.129-2.13-1.775-3.766.23-1.062 1.563-3.195 2.365-4.045.924-.98 2.3-2.438 3.588-3.624 1.087-1 2.714-2.519 2.395-2.65-.18-.155-2.26 1.119-2.903 1.521z" color="#000" fill="url(#af)" fill-rule="evenodd" style="block-progression:tb;isolation:auto;mix-blend-mode:normal;text-decoration-color:#000;text-decoration-line:none;text-decoration-style:solid;text-indent:0;text-transform:none;white-space:normal" transform="translate(-.21 -940.24)"/><path d="M81.816 1030.2c-1.54.962-3.2 2.298-4.37 3.537-1.103 1.17-2.261 3.11-2.618 4.76-.545 2.518.97 4.767 3.01 5.437 1.255.412 2.382.072 3.276-.623.893-.694 1.455-1.768 1.67-2.813.2-.975-.015-2.135-.351-3.081-.428-1.204-1.297-2.278-1.576-2.011 0 0 .578 1.26.706 2.175.143 1.022.1 2.198-.097 2.869-.16.544-.727 1.378-1.085 1.676-.533.443-1.604.845-2.235.638-1.16-.381-2.129-2.13-1.775-3.766.23-1.062 1.563-3.195 2.365-4.045.924-.98 2.3-2.438 3.588-3.624 1.087-1 2.714-2.519 2.395-2.65-.18-.155-2.26 1.119-2.903 1.521z" color="#000" fill="url(#ag)" fill-rule="evenodd" style="block-progression:tb;isolation:auto;mix-blend-mode:normal;text-decoration-color:#000;text-decoration-line:none;text-decoration-style:solid;text-indent:0;text-transform:none;white-space:normal" transform="translate(-.21 -940.24)"/><path d="M92.422 1011.2c-1.54.962-3.2 2.298-4.37 3.537-1.103 1.17-2.261 3.11-2.618 4.76-.545 2.518.97 4.767 3.01 5.437 1.255.412 2.382.072 3.276-.623.893-.694 1.455-1.768 1.67-2.813.2-.975-.015-2.135-.351-3.081-.428-1.204-1.297-2.278-1.576-2.011 0 0 .578 1.26.706 2.175.143 1.022.1 2.198-.097 2.868-.16.545-.727 1.379-1.085 1.677-.533.443-1.604.845-2.235.638-1.16-.381-2.129-2.13-1.775-3.766.23-1.062 1.563-3.195 2.365-4.045.924-.98 2.3-2.438 3.588-3.624 1.087-1 2.714-2.519 2.395-2.65-.18-.155-2.26 1.119-2.903 1.521z" color="#000" fill="url(#ah)" fill-rule="evenodd" style="block-progression:tb;isolation:auto;mix-blend-mode:normal;text-decoration-color:#000;text-decoration-line:none;text-decoration-style:solid;text-indent:0;text-transform:none;white-space:normal" transform="translate(-.21 -940.24)"/><path d="M10.852 1001.5c-1.54.962-3.2 2.298-4.37 3.537-1.103 1.17-2.261 3.11-2.618 4.76-.545 2.518.97 4.767 3.01 5.437 1.255.412 2.382.072 3.276-.623.893-.694 1.455-1.768 1.67-2.813.2-.975-.015-2.135-.351-3.081-.428-1.204-1.297-2.278-1.576-2.011 0 0 .578 1.26.706 2.175.143 1.022.1 2.198-.097 2.869-.16.544-.727 1.378-1.085 1.676-.533.443-1.604.845-2.235.638-1.16-.381-2.129-2.13-1.775-3.766.23-1.062 1.563-3.195 2.365-4.045.924-.98 2.3-2.438 3.588-3.624 1.087-1 2.714-2.519 2.395-2.65-.18-.155-2.26 1.119-2.903 1.521z" color="#000" fill="url(#ai)" fill-rule="evenodd" style="block-progression:tb;isolation:auto;mix-blend-mode:normal;text-decoration-color:#000;text-decoration-line:none;text-decoration-style:solid;text-indent:0;text-transform:none;white-space:normal" transform="translate(-.21 -940.24)"/></svg>