<svg viewBox="0 0 48 48" xmlns="http://www.w3.org/2000/svg" xmlns:xlink="http://www.w3.org/1999/xlink"><defs><linearGradient id="h" x1="271.02" x2="285.03" y1="-441.05" y2="-431.97" gradientUnits="userSpaceOnUse" xlink:href="#a"/><linearGradient id="a"><stop stop-color="#fff" offset="0"/><stop stop-color="#fff" stop-opacity="0" offset="1"/></linearGradient><linearGradient id="m" x1="286.67" x2="289.77" y1="-439.48" y2="-436.71" gradientUnits="userSpaceOnUse" xlink:href="#a"/><linearGradient id="l" x1="275.94" x2="279.98" y1="-437.11" y2="-431.92" gradientUnits="userSpaceOnUse" xlink:href="#a"/><linearGradient id="k" x1="285.94" x2="289.39" y1="-439.94" y2="-436.44" gradientUnits="userSpaceOnUse" xlink:href="#a"/><linearGradient id="j" x1="286.51" x2="289.85" y1="-441.29" y2="-436.14" gradientUnits="userSpaceOnUse" xlink:href="#a"/><linearGradient id="i" x1="287.52" x2="289.68" y1="-439.75" y2="-436.32" gradientUnits="userSpaceOnUse" xlink:href="#a"/><linearGradient id="n" x1="284.8" x2="288.9" y1="-441.23" y2="-436.83" gradientUnits="userSpaceOnUse" xlink:href="#a"/><linearGradient id="g" x1="-156.29" x2="-153.1" y1="-100.53" y2="-96.545" gradientUnits="userSpaceOnUse" xlink:href="#a"/><linearGradient id="f" x1="238" x2="245.65" y1="-388.47" y2="-382.65" gradientUnits="userSpaceOnUse" xlink:href="#a"/><linearGradient id="e" x1="230.88" x2="235.26" y1="-390.44" y2="-386.96" gradientUnits="userSpaceOnUse" xlink:href="#a"/><linearGradient id="d" x1="246.74" x2="252.7" y1="-391.31" y2="-385.35" gradientUnits="userSpaceOnUse" xlink:href="#a"/><linearGradient id="c" x1="240.07" x2="245.83" y1="-393.41" y2="-388.55" gradientUnits="userSpaceOnUse" xlink:href="#a"/><linearGradient id="b" x1="297.51" x2="347.92" y1="-290.31" y2="-273.38" gradientUnits="userSpaceOnUse" xlink:href="#a"/></defs><path d="M24.503 2c-2.773 0-5.109 1.574-6.407 3.813C17.152 5.337 16.131 5 15.003 5c-3.864 0-7 3.136-7 7s3.136 7 7 7c2.42 0 4.43-1.32 5.687-3.188 1.134.69 2.39 1.188 3.813 1.188.913 0 1.753-.232 2.562-.531.51.867 1.18 1.58 2 2.156-.007.13-.062.243-.062.375 0 3.864 3.136 7 7 7s7-3.136 7-7c0-2.37-1.26-4.358-3.063-5.625.007-.13.063-.243.063-.375 0-3.864-3.136-7-7-7-.623 0-1.176.222-1.75.375C30.058 3.816 27.51 2 24.503 2z" fill="#888a85"/><path d="M311.5-295c-2.78 0-5.135 1.762-6.063 4.219-.985-.71-2.13-1.219-3.437-1.219-3.312 0-6 2.688-6 6s2.688 6 6 6c2.428 0 4.493-1.456 5.438-3.531 1.12.917 2.502 1.531 4.062 1.531 1.075 0 2.044-.319 2.938-.781.398 1 1.1 1.786 1.937 2.437-.18.596-.375 1.19-.375 1.844 0 3.588 2.912 6.5 6.5 6.5s6.5-2.912 6.5-6.5c0-2.36-1.334-4.33-3.219-5.469.063-.347.219-.666.219-1.031a6.002 6.002 0 0 0-8.406-5.5c-.854-2.594-3.215-4.5-6.094-4.5z" fill="url(#b)" transform="translate(-287 298)"/><path d="M42.005 19.495a6.5 6.5 0 1 1-13 0 6.5 6.5 0 1 1 13 0zM30 9.501a5.5 5.5 0 1 1-11 0 5.5 5.5 0 1 1 11 0z" fill="#c4c5c2"/><path transform="translate(-190.817 353.109) scale(.88263)" d="M250.18-389.3a6.231 6.231 0 1 1-12.463 0 6.231 6.231 0 1 1 12.463 0z" fill="url(#c)"/><path d="M38 13.498a5.5 5.5 0 1 1-11 0 5.5 5.5 0 1 1 11 0z" fill="#c4c5c2"/><path transform="translate(-196.543 365.234) scale(.91173)" d="M257.25-385.79a6.032 6.032 0 1 1-12.065 0 6.032 6.032 0 1 1 12.065 0z" fill="url(#d)"/><path d="M20.004 12a5 5 0 1 1-10 0 5 5 0 1 1 10 0z" fill="#c4c5c2"/><path transform="translate(-251.765 455.28) scale(1.1428)" d="M237.81-387.89a4.375 4.375 0 1 1-8.75 0 4.375 4.375 0 1 1 8.75 0z" fill="url(#e)"/><path d="M30.996 16.01a7 7 0 1 1-14 0 7 7 0 1 1 14 0z" fill="#c4c5c2"/><path transform="translate(-227.148 414.49) scale(1.0386)" d="M248.55-383.67a6.74 6.74 0 1 1-13.479 0 6.74 6.74 0 1 1 13.479 0z" fill="url(#f)"/><path d="M16.588 18.405a5.077 5.077 0 1 1-10.155 0 5.077 5.077 0 1 1 10.155 0z" fill="#c4c5c2"/><path transform="translate(263.52 175.85) scale(1.6248)" d="M-151.94-96.938a3.125 3.125 0 1 1-6.25 0 3.125 3.125 0 1 1 6.25 0z" fill="url(#g)"/><path d="M31.503 14.5c-2.27 0-4.11 1.55-4.719 3.625-.693-.364-1.444-.625-2.281-.625-2.76 0-5 2.24-5 5 0 .579.163 1.108.344 1.625-1.374.77-2.344 2.189-2.344 3.875 0 2.484 2.016 4.5 4.5 4.5h19c2.484 0 4.5-2.016 4.5-4.5 0-1.686-.97-3.104-2.344-3.875.181-.517.344-1.046.344-1.625 0-2.76-2.24-5-5-5-.837 0-1.588.261-2.281.625-.61-2.075-2.448-3.625-4.72-3.625z" fill="#c4c5c2" stroke="#888a85" stroke-miterlimit="2"/><path d="M280.5-445c-2.19 0-3.724 1.336-4.396 3.844-.668-.344-1.547-.834-2.354-.834-2.716 0-4.755 1.939-4.755 4.546 0 .546.267 1.333.442 1.822-1.325.728-2.437 1.89-2.437 3.372 0 2.346 1.546 4.25 4.34 4.25h18.32c2.771 0 4.34-1.904 4.34-4.25 0-1.592-1.113-2.666-2.437-3.394.175-.489.464-1.254.464-1.8 0-2.607-2.116-4.568-4.777-4.568-.807 0-1.642.49-2.31.834-.65-2.422-2.25-3.822-4.44-3.822z" fill="url(#h)" transform="translate(-248.997 460)"/><path d="M35.005 19.505a3.5 3.5 0 1 1-7 0 3.5 3.5 0 1 1 7 0z" fill="#c4c5c2"/><path transform="translate(-273.195 481.863) scale(1.0566)" d="M291.69-437.59a3.313 3.313 0 1 1-6.625 0 3.313 3.313 0 1 1 6.625 0z" fill="url(#i)"/><path d="M22.003 22h20v9h-20z" fill="#c4c5c2"/><path d="M25.005 28.003a3 3 0 1 1-6 0 3 3 0 1 1 6 0zM42.005 22.505a3.5 3.5 0 1 1-7 0 3.5 3.5 0 1 1 7 0z" fill="#c4c5c2"/><path transform="translate(-266.195 484.863) scale(1.0566)" d="M291.69-437.59a3.313 3.313 0 1 1-6.625 0 3.313 3.313 0 1 1 6.625 0z" fill="url(#j)"/><path d="M28.005 22.505a3.5 3.5 0 1 1-7 0 3.5 3.5 0 1 1 7 0z" fill="#c4c5c2"/><path transform="translate(-280.195 484.863) scale(1.0566)" d="M291.69-437.59a3.313 3.313 0 1 1-6.625 0 3.313 3.313 0 1 1 6.625 0z" fill="url(#k)"/><path d="M30.473 19.03c-3.58 0-6.469 2.92-6.469 6.5 0 2.37 1.35 4.338 3.25 5.469h6.469c1.9-1.131 3.25-3.13 3.25-5.5 0-3.58-2.92-6.469-6.5-6.469z" fill="#c4c5c2"/><path d="M280.5-441a6.502 6.502 0 0 0-6.5 6.5c0 2.376 1.345 4.366 3.25 5.5h6.5c1.905-1.134 3.25-3.124 3.25-5.5 0-3.588-2.912-6.5-6.5-6.5z" fill="url(#l)" transform="translate(-249.997 460)"/><path transform="translate(-239.167 424.311) scale(.90566)" d="M291.69-437.59a3.313 3.313 0 1 1-6.625 0 3.313 3.313 0 1 1 6.625 0z" fill="url(#m)"/><path d="M43.963 22.67c-.002 2.685-3.27 3.714-3.27 3.714s2.35-1.626 2.337-3.705l.933-.009z" fill="#888a85" fill-rule="evenodd"/><path d="M39.022 26.981a4 4 0 1 1-8 0 4 4 0 1 1 8 0z" fill="#c4c5c2"/><path transform="translate(-313.223 555.415) scale(1.2076)" d="M291.69-437.59a3.313 3.313 0 1 1-6.625 0 3.313 3.313 0 1 1 6.625 0z" fill="url(#n)"/><g><path d="M16.5 10.5c-2.27 0-4.11 1.55-4.719 3.625-.693-.364-1.444-.625-2.281-.625-2.76 0-5 2.24-5 5 0 .579.163 1.108.344 1.625C3.47 20.895 2.5 22.314 2.5 24c0 2.484 2.016 4.5 4.5 4.5h19c2.484 0 4.5-2.016 4.5-4.5 0-1.686-.97-3.104-2.344-3.875.181-.517.344-1.046.344-1.625 0-2.76-2.24-5-5-5-.837 0-1.588.261-2.281.625-.61-2.075-2.448-3.625-4.72-3.625z" fill="#c4c5c2" stroke="#888a85" stroke-miterlimit="2"/><path d="M280.5-445c-2.19 0-3.724 1.336-4.396 3.844-.668-.344-1.547-.834-2.354-.834-2.716 0-4.755 1.939-4.755 4.546 0 .546.267 1.333.442 1.822-1.325.728-2.437 1.89-2.437 3.372 0 2.346 1.546 4.25 4.34 4.25h18.32c2.771 0 4.34-1.904 4.34-4.25 0-1.592-1.113-2.666-2.437-3.394.175-.489.464-1.254.464-1.8 0-2.607-2.116-4.568-4.777-4.568-.807 0-1.642.49-2.31.834-.65-2.422-2.25-3.822-4.44-3.822z" fill="url(#h)" transform="translate(-264 456)"/><path d="M20.002 15.505a3.5 3.5 0 1 1-7 0 3.5 3.5 0 1 1 7 0z" fill="#c4c5c2"/><path transform="translate(-288.198 477.863) scale(1.0566)" d="M291.69-437.59a3.313 3.313 0 1 1-6.625 0 3.313 3.313 0 1 1 6.625 0z" fill="url(#i)"/><path d="M7 18h20v9H7z" fill="#c4c5c2"/><path d="M10.002 24.003a3 3 0 1 1-6 0 3 3 0 1 1 6 0zM27.002 18.505a3.5 3.5 0 1 1-7 0 3.5 3.5 0 1 1 7 0z" fill="#c4c5c2"/><path transform="translate(-281.198 480.863) scale(1.0566)" d="M291.69-437.59a3.313 3.313 0 1 1-6.625 0 3.313 3.313 0 1 1 6.625 0z" fill="url(#j)"/><path d="M13.002 18.505a3.5 3.5 0 1 1-7 0 3.5 3.5 0 1 1 7 0z" fill="#c4c5c2"/><path transform="translate(-295.198 480.863) scale(1.0566)" d="M291.69-437.59a3.313 3.313 0 1 1-6.625 0 3.313 3.313 0 1 1 6.625 0z" fill="url(#k)"/><path d="M15.47 15.03c-3.58 0-6.469 2.92-6.469 6.5 0 2.37 1.35 4.338 3.25 5.469h6.469c1.9-1.131 3.25-3.13 3.25-5.5 0-3.58-2.92-6.469-6.5-6.469z" fill="#c4c5c2"/><path d="M280.5-441a6.502 6.502 0 0 0-6.5 6.5c0 2.376 1.345 4.366 3.25 5.5h6.5c1.905-1.134 3.25-3.124 3.25-5.5 0-3.588-2.912-6.5-6.5-6.5z" fill="url(#l)" transform="translate(-265 456)"/><path transform="translate(-254.17 420.311) scale(.90566)" d="M291.69-437.59a3.313 3.313 0 1 1-6.625 0 3.313 3.313 0 1 1 6.625 0z" fill="url(#m)"/><path d="M28.96 18.67c-.002 2.685-3.27 3.714-3.27 3.714s2.35-1.626 2.337-3.705l.933-.009z" fill="#888a85" fill-rule="evenodd"/><path d="M24.019 22.981a4 4 0 1 1-8 0 4 4 0 1 1 8 0z" fill="#c4c5c2"/><path transform="translate(-328.226 551.415) scale(1.2076)" d="M291.69-437.59a3.313 3.313 0 1 1-6.625 0 3.313 3.313 0 1 1 6.625 0z" fill="url(#n)"/></g></svg>