<svg viewBox="0 0 48 48" xmlns="http://www.w3.org/2000/svg" xmlns:xlink="http://www.w3.org/1999/xlink"><defs><linearGradient id="e" x1="285.94" x2="289.39" y1="-439.94" y2="-436.44" gradientUnits="userSpaceOnUse" xlink:href="#a"/><linearGradient id="a"><stop stop-color="#fff" offset="0"/><stop stop-color="#fff" stop-opacity="0" offset="1"/></linearGradient><linearGradient id="h" x1="284.8" x2="288.9" y1="-441.23" y2="-436.83" gradientUnits="userSpaceOnUse" xlink:href="#a"/><linearGradient id="g" x1="286.67" x2="289.77" y1="-439.48" y2="-436.71" gradientUnits="userSpaceOnUse" xlink:href="#a"/><linearGradient id="f" x1="275.94" x2="279.98" y1="-437.11" y2="-431.92" gradientUnits="userSpaceOnUse" xlink:href="#a"/><linearGradient id="k" x1="-28.969" x2="-37.197" y1="-25.327" y2="-9.559" gradientUnits="userSpaceOnUse"><stop stop-color="#fff9c6" offset="0"/><stop stop-color="#fff28c" offset=".542"/><stop stop-color="#ffea85" offset="1"/></linearGradient><linearGradient id="d" x1="286.51" x2="289.85" y1="-441.29" y2="-436.14" gradientUnits="userSpaceOnUse" xlink:href="#a"/><linearGradient id="c" x1="287.52" x2="289.68" y1="-439.75" y2="-436.32" gradientUnits="userSpaceOnUse" xlink:href="#a"/><linearGradient id="b" x1="271.02" x2="285.03" y1="-441.05" y2="-431.97" gradientUnits="userSpaceOnUse" xlink:href="#a"/><radialGradient id="j" cx="-33.519" cy="-22.113" r="9.5" gradientTransform="matrix(.48774 1.2924 -1.1027 .49724 -41.774 32.415)" gradientUnits="userSpaceOnUse"><stop stop-color="#fff7c2" stop-opacity=".638" offset="0"/><stop stop-color="#fcaf3e" stop-opacity=".183" offset=".594"/><stop stop-color="#fcaf3e" stop-opacity=".505" offset=".839"/><stop stop-color="#fcaf3e" offset="1"/></radialGradient><radialGradient id="i" cx="24" cy="23.382" r="19.142" gradientTransform="matrix(1.0067 0 0 1.0075 -.16 .427)" gradientUnits="userSpaceOnUse"><stop stop-color="#fff" stop-opacity="0" offset="0"/><stop stop-color="#fff" stop-opacity="0" offset=".75"/><stop stop-color="#fff" offset="1"/></radialGradient></defs><path d="M16.51 14.49c-2.27 0-4.11 1.55-4.719 3.625-.693-.364-1.444-.625-2.281-.625-2.76 0-5 2.24-5 5 0 .579.163 1.108.344 1.625-1.374.77-2.344 2.189-2.344 3.875 0 2.484 2.016 4.5 4.5 4.5h19c2.484 0 4.5-2.016 4.5-4.5 0-1.686-.97-3.104-2.344-3.875.181-.517.344-1.046.344-1.625 0-2.76-2.24-5-5-5-.837 0-1.588.261-2.281.625-.61-2.075-2.448-3.625-4.72-3.625z" fill="#c4c5c2" stroke="#888a85" stroke-miterlimit="2"/><path d="M280.5-445c-2.19 0-3.724 1.336-4.396 3.844-.668-.344-1.547-.834-2.354-.834-2.716 0-4.755 1.939-4.755 4.546 0 .546.267 1.333.442 1.822-1.325.728-2.437 1.89-2.437 3.372 0 2.346 1.546 4.25 4.34 4.25h18.32c2.771 0 4.34-1.904 4.34-4.25 0-1.592-1.113-2.666-2.437-3.394.175-.489.464-1.254.464-1.8 0-2.607-2.116-4.568-4.777-4.568-.807 0-1.642.49-2.31.834-.65-2.422-2.25-3.822-4.44-3.822z" fill="url(#b)" transform="translate(-263.99 459.99)"/><path d="M20.012 19.495a3.5 3.5 0 1 1-7 0 3.5 3.5 0 1 1 7 0z" fill="#c4c5c2"/><path transform="translate(-288.188 481.853) scale(1.0566)" d="M291.69-437.59a3.313 3.313 0 1 1-6.625 0 3.313 3.313 0 1 1 6.625 0z" fill="url(#c)"/><path d="M7.01 21.99h20v9h-20z" fill="#c4c5c2"/><path d="M10.012 27.993a3 3 0 1 1-6 0 3 3 0 1 1 6 0zM27.012 22.495a3.5 3.5 0 1 1-7 0 3.5 3.5 0 1 1 7 0z" fill="#c4c5c2"/><path transform="translate(-281.188 484.853) scale(1.0566)" d="M291.69-437.59a3.313 3.313 0 1 1-6.625 0 3.313 3.313 0 1 1 6.625 0z" fill="url(#d)"/><path d="M13.012 22.495a3.5 3.5 0 1 1-7 0 3.5 3.5 0 1 1 7 0z" fill="#c4c5c2"/><path transform="translate(-295.188 484.853) scale(1.0566)" d="M291.69-437.59a3.313 3.313 0 1 1-6.625 0 3.313 3.313 0 1 1 6.625 0z" fill="url(#e)"/><path d="M15.48 19.02c-3.58 0-6.469 2.92-6.469 6.5 0 2.37 1.35 4.338 3.25 5.469h6.469c1.9-1.131 3.25-3.13 3.25-5.5 0-3.58-2.92-6.469-6.5-6.469z" fill="#c4c5c2"/><path d="M280.5-441a6.502 6.502 0 0 0-6.5 6.5c0 2.376 1.345 4.366 3.25 5.5h6.5c1.905-1.134 3.25-3.124 3.25-5.5 0-3.588-2.912-6.5-6.5-6.5z" fill="url(#f)" transform="translate(-264.99 459.99)"/><path transform="translate(-254.16 424.301) scale(.90566)" d="M291.69-437.59a3.313 3.313 0 1 1-6.625 0 3.313 3.313 0 1 1 6.625 0z" fill="url(#g)"/><path d="M28.97 22.66c-.002 2.685-3.27 3.714-3.27 3.714s2.35-1.626 2.337-3.705l.933-.009z" fill="#888a85" fill-rule="evenodd"/><path d="M24.029 26.971a4 4 0 1 1-8 0 4 4 0 1 1 8 0z" fill="#c4c5c2"/><path transform="translate(-328.216 555.405) scale(1.2076)" d="M291.69-437.59a3.313 3.313 0 1 1-6.625 0 3.313 3.313 0 1 1 6.625 0z" fill="url(#h)"/><g opacity=".7" stroke-linecap="square"><path d="m24 2.5-2.375 6.688a15.073 15.073 0 0 1 4.75 0L24 2.5zM8.812 8.781l3.031 6.438a15.224 15.224 0 0 1 3.375-3.375L8.812 8.78zm30.406 0-6.438 3.063c1.29.935 2.44 2.085 3.375 3.375l3.063-6.438zM9.187 21.593l-6.688 2.375 6.688 2.375a15.07 15.07 0 0 1 0-4.75zm29.625.031a15.073 15.073 0 0 1 0 4.75L45.5 24l-6.688-2.375zM11.843 32.78l-3.031 6.407 6.406-3.032a15.224 15.224 0 0 1-3.375-3.375zm24.312 0a15.227 15.227 0 0 1-3.344 3.344l6.406 3.063-3.062-6.406zm-14.531 6.032 2.375 6.687 2.375-6.687a15.073 15.073 0 0 1-4.75 0z" fill="#fce94f" stroke="#fcaf3e" stroke-width=".737"/><path d="m24 5.25-1.344 3.813C23.1 9.023 23.547 9 24 9s.901.023 1.344.063L24 5.25zm-13.219 5.5 1.719 3.625a15.488 15.488 0 0 1 1.906-1.906l-3.625-1.719zm26.469 0-3.625 1.719c.68.57 1.337 1.226 1.906 1.906l1.719-3.625zM9.062 22.625l-3.78 1.344 3.78 1.343C9.025 24.88 9 24.442 9 24c0-.464.021-.922.063-1.375zm29.876.031c.039.443.062.891.062 1.344s-.023.901-.063 1.344L42.72 24l-3.782-1.344zM35.53 33.594a15.583 15.583 0 0 1-1.906 1.937l3.625 1.719-1.719-3.656zm-23.031.031-1.719 3.594 3.594-1.719a15.38 15.38 0 0 1-1.875-1.875zm10.156 5.313L24 42.718l1.344-3.78C24.9 38.977 24.453 39 24 39s-.901-.023-1.344-.063z" fill="none" stroke="url(#i)" stroke-width=".846"/></g><path d="M31.4 13.904A12.502 12.502 0 1 1 16.619 34.07 12.502 12.502 0 1 1 31.4 13.904z" fill="#ffee54" stroke="#fcaf3e" stroke-linecap="square" stroke-width="1.000122"/><path transform="matrix(1.2443 -.16771 .21664 1.2518 67.616 40.527)" d="M-22.5-17.5a9.5 9.5 0 1 1-19 0 9.5 9.5 0 1 1 19 0z" fill="url(#j)"/><path transform="matrix(.71579 -.97635 .97635 .71579 64 5.27)" d="M-22.5-17.5a9.5 9.5 0 1 1-19 0 9.5 9.5 0 1 1 19 0z" fill="none" stroke="url(#k)" stroke-linecap="square" stroke-width=".826"/><g><path d="M31.51 22.49c-2.27 0-4.11 1.55-4.719 3.625-.693-.364-1.444-.625-2.281-.625-2.76 0-5 2.24-5 5 0 .579.163 1.108.344 1.625-1.374.77-2.344 2.189-2.344 3.875 0 2.484 2.016 4.5 4.5 4.5h19c2.484 0 4.5-2.016 4.5-4.5 0-1.686-.97-3.104-2.344-3.875.181-.517.344-1.046.344-1.625 0-2.76-2.24-5-5-5-.837 0-1.588.261-2.281.625-.61-2.075-2.448-3.625-4.72-3.625z" fill="#c4c5c2" stroke="#888a85" stroke-miterlimit="2"/><path d="M280.5-445c-2.19 0-3.724 1.336-4.396 3.844-.668-.344-1.547-.834-2.354-.834-2.716 0-4.755 1.939-4.755 4.546 0 .546.267 1.333.442 1.822-1.325.728-2.437 1.89-2.437 3.372 0 2.346 1.546 4.25 4.34 4.25h18.32c2.771 0 4.34-1.904 4.34-4.25 0-1.592-1.113-2.666-2.437-3.394.175-.489.464-1.254.464-1.8 0-2.607-2.116-4.568-4.777-4.568-.807 0-1.642.49-2.31.834-.65-2.422-2.25-3.822-4.44-3.822z" fill="url(#b)" transform="translate(-248.99 467.99)"/><path d="M35.012 27.495a3.5 3.5 0 1 1-7 0 3.5 3.5 0 1 1 7 0z" fill="#c4c5c2"/><path transform="translate(-273.188 489.853) scale(1.0566)" d="M291.69-437.59a3.313 3.313 0 1 1-6.625 0 3.313 3.313 0 1 1 6.625 0z" fill="url(#c)"/><path d="M22.01 29.99h20v9h-20z" fill="#c4c5c2"/><path d="M25.012 35.993a3 3 0 1 1-6 0 3 3 0 1 1 6 0zM42.012 30.495a3.5 3.5 0 1 1-7 0 3.5 3.5 0 1 1 7 0z" fill="#c4c5c2"/><path transform="translate(-266.188 492.853) scale(1.0566)" d="M291.69-437.59a3.313 3.313 0 1 1-6.625 0 3.313 3.313 0 1 1 6.625 0z" fill="url(#d)"/><path d="M28.012 30.495a3.5 3.5 0 1 1-7 0 3.5 3.5 0 1 1 7 0z" fill="#c4c5c2"/><path transform="translate(-280.188 492.853) scale(1.0566)" d="M291.69-437.59a3.313 3.313 0 1 1-6.625 0 3.313 3.313 0 1 1 6.625 0z" fill="url(#e)"/><path d="M30.48 27.02c-3.58 0-6.469 2.92-6.469 6.5 0 2.37 1.35 4.338 3.25 5.469h6.469c1.9-1.131 3.25-3.13 3.25-5.5 0-3.58-2.92-6.469-6.5-6.469z" fill="#c4c5c2"/><path d="M280.5-441a6.502 6.502 0 0 0-6.5 6.5c0 2.376 1.345 4.366 3.25 5.5h6.5c1.905-1.134 3.25-3.124 3.25-5.5 0-3.588-2.912-6.5-6.5-6.5z" fill="url(#f)" transform="translate(-249.99 467.99)"/><path transform="translate(-239.16 432.301) scale(.90566)" d="M291.69-437.59a3.313 3.313 0 1 1-6.625 0 3.313 3.313 0 1 1 6.625 0z" fill="url(#g)"/><path d="M43.97 30.66c-.002 2.685-3.27 3.714-3.27 3.714s2.35-1.626 2.337-3.705l.933-.009z" fill="#888a85" fill-rule="evenodd"/><path d="M39.029 34.971a4 4 0 1 1-8 0 4 4 0 1 1 8 0z" fill="#c4c5c2"/><path transform="translate(-313.216 563.405) scale(1.2076)" d="M291.69-437.59a3.313 3.313 0 1 1-6.625 0 3.313 3.313 0 1 1 6.625 0z" fill="url(#h)"/></g></svg>