<?xml version="1.0" encoding="UTF-8"?>
<svg viewBox="0 0 210 210" xmlns="http://www.w3.org/2000/svg">
 <defs>
  <filter id="f">
   <feGaussianBlur stdDeviation="2.571429"/>
  </filter>
  <linearGradient id="g" x1=".6253" x2=".6253" y1="-.001682" y2="1.0736">
   <stop stop-color="#fff" stop-opacity=".375" offset="0"/>
   <stop stop-color="#fff" stop-opacity="0" offset="1"/>
  </linearGradient>
  <linearGradient id="h" x1=".50382" x2=".62985" y1=".099828" y2="1">
   <stop stop-color="#fff" offset="0"/>
   <stop stop-color="#fff" stop-opacity="0" offset="1"/>
  </linearGradient>
  <radialGradient id="j" cx="-468.78" cy="440.96" r="128.57" gradientTransform="matrix(-.020617 1.022 -.9998 -.020169 -37.572 928.95)" gradientUnits="userSpaceOnUse">
   <stop stop-color="#ff0" offset="0"/>
   <stop stop-color="#ffd400" offset=".5"/>
   <stop stop-color="#ffa900" offset="1"/>
  </radialGradient>
  <radialGradient id="i" cx="377.14" cy="404.36" r="216.8" gradientTransform="matrix(1.2653e-7 -1.0008 1.0527 1.3251e-7 -59.965 792.66)" gradientUnits="userSpaceOnUse">
   <stop stop-color="#fffdbc" offset="0"/>
   <stop stop-color="#fcff00" offset="1"/>
  </radialGradient>
 </defs>
 <g transform="matrix(.46448 0 0 .46448 133.55 166.76)" fill-rule="evenodd">
  <path d="m103.34 11.493c-0.591 0.6352-78.264-36.445-78.967-35.938-0.7035 0.5077 9.9941 85.91 9.2051 86.27-0.7892 0.3606-58.359-63.621-59.203-63.422-0.8443 0.19971-23.643 83.195-24.51 83.226-0.867 0.031197-29.57-81.112-30.426-81.25-0.8564-0.13861-53.68 67.814-54.493 67.511s3.721-86.253 2.982-86.709c-0.73801-0.4557-75.545 42.11-76.18 41.519-0.63599-0.591 36.445-78.264 35.937-78.967-0.507-0.7036-85.91 9.9941-86.27 9.205-0.36102-0.7891 63.621-58.36 63.421-59.204-0.199-0.844-83.195-23.643-83.226-24.51-0.031006-0.867 81.112-29.57 81.25-30.426 0.13901-0.85701-67.814-53.681-67.511-54.494 0.30301-0.813 86.253 3.721 86.709 2.983 0.45499-0.73801-42.11-75.546-41.519-76.181 0.591-0.63501 78.264 36.445 78.967 35.938 0.704-0.50801-9.994-85.91-9.205-86.271 0.789-0.35998 58.359 63.622 59.204 63.422 0.8443-0.19998 23.643-83.195 24.51-83.226 0.867-0.031006 29.57 81.111 30.426 81.25 0.8564 0.138 53.68-67.815 54.494-67.512 0.8129 0.30298-3.721 86.254-2.9828 86.709 0.7383 0.45599 75.546-42.109 76.181-41.518 0.6351 0.591-36.445 78.263-35.938 78.967 0.5077 0.703 85.91-9.994 86.27-9.205 0.36099 0.789-63.621 58.359-63.421 59.203 0.1997 0.84399 83.195 23.643 83.226 24.51 0.031006 0.867-81.111 29.57-81.25 30.427-0.1386 0.856 67.814 53.68 67.511 54.493-0.30299 0.813-86.253-3.7209-86.708-2.9827-0.4558 0.7383 42.11 75.546 41.518 76.181z" fill="#fb0"/>
  <path d="m91.708 0.6688c-0.4895 0.52612-66.752-25.534-67.335-25.113-0.5828 0.4205 3.2542 71.52 2.6006 71.818-0.6536 0.2987-51.9-49.135-52.599-48.97-0.6994 0.16541-24.363 67.321-25.081 67.347-0.7182 0.025803-29.146-65.256-29.855-65.371-0.7094-0.11481-48.271 52.873-48.944 52.622-0.67401-0.251-1.955-71.442-2.567-71.82-0.61101-0.3775-64.83 30.376-65.356 29.886-0.526-0.4896 25.534-66.752 25.113-67.335-0.42-0.5828-71.52 3.2542-71.818 2.6006-0.299-0.6537 49.135-51.899 48.969-52.599-0.16501-0.699-67.321-24.363-67.347-25.081-0.024994-0.718 65.256-29.146 65.371-29.855 0.115-0.71001-52.873-48.271-52.622-48.945 0.25101-0.67299 71.442-1.954 71.82-2.566 0.377-0.61101-30.376-64.83-29.887-65.356 0.49-0.52701 66.752 25.533 67.335 25.113 0.58299-0.421-3.254-71.52-2.6-71.819 0.653-0.298 51.899 49.135 52.599 48.97 0.6994-0.16598 24.363-67.321 25.081-67.347 0.7182-0.026001 29.146 65.256 29.855 65.371 0.7094 0.11499 48.271-52.873 48.944-52.622 0.6734 0.25101 1.9548 71.442 2.5663 71.819 0.6115 0.37799 64.83-30.376 65.356-29.886 0.5261 0.48898-25.534 66.752-25.113 67.335 0.4205 0.58299 71.52-3.254 71.818-2.601 0.29901 0.65399-49.135 51.9-48.969 52.599 0.1654 0.7 67.321 24.363 67.347 25.081 0.026001 0.71899-65.256 29.146-65.371 29.856-0.1148 0.709 52.873 48.271 52.622 48.944-0.25101 0.6734-71.442 1.9548-71.82 2.5663-0.3775 0.6115 30.376 64.83 29.886 65.356z" fill="url(#i)"/>
  <path d="m-62.421-298.32c-7.1149-0.332-13.621 3.997-16.062 10.688-0.393 1.073-0.9709 2.612-1.3438 3.625-1.1644 3.163-2.1521 5.796-2.9062 7.75-0.4261 1.104-0.6859 1.779-0.9375 2.375-0.1156 0.27301-0.061302 0.177-0.4375 0.93701-0.5325 1.076 0.011497 0.070007-0.4375 0.78101-0.5756 0.91199 0.033203 0.083984-0.6875 0.90698-1.0211 1.165-0.9564 1.142-1.2188 1.468-0.4288 0.16998-1.0363 0.41898-2.4375 0.75-1.39 0.32898-2.0095 0.39697-2.4687 0.43799-0.3797-0.17401-0.3237-0.18799-1.7813-0.78101-1.0207-0.41598-0.12891 0.044006-1.0312-0.5-0.785-0.474 0.073204 0.097015-0.7188-0.5-0.5978-0.45099-0.4378-0.33701-0.8125-0.65698-0.5299-0.45102-1.0632-0.92203-1.9062-1.687-1.559-1.416-3.639-3.325-6.0938-5.625-0.5265-0.49399-1.7231-1.694-2.8121-2.719-4.826-4.54-11.92-5.705-17.944-2.947-6.025 2.758-9.778 8.89-9.494 15.51 0.046997 1.12 0.11 2.789 0.15599 3.937 0.138 3.44 0.26401 6.293 0.313 8.281 0.025009 1.015 0.037003 1.662 0.031006 2.5-0.005997 0.79201 0.007996 0.48401-0.031006 1.063-0.054001 0.804 0.039001-0.050003-0.125 0.90601-0.187 1.088 0.074997 0.042999-0.28099 1.094-0.49701 1.465-0.44301 1.405-0.563 1.812-0.32701 0.319-0.79401 0.778-1.969 1.625-1.153 0.832-1.721 1.133-2.125 1.344-0.435-0.014999-0.355-0.041-1.906-0.031006-1.176 0.007004-0.28801 0.069-1.156-0.063004-0.81599-0.123 0.30301 0.087006-0.875-0.218-0.717-0.18599-0.535-0.131-1-0.282-0.677-0.21899-1.345-0.46199-2.406-0.843-1.943-0.69899-4.577-1.678-7.75-2.875-0.908-0.343-2.466-0.924-3.657-1.375-6.187-2.346-13.179-0.715-17.69 4.125-4.512 4.841-5.647 11.93-2.872 17.937 0.52 1.121 1.237 2.624 1.656 3.531 1.426 3.091 2.578 5.661 3.406 7.532 0.485 1.095 0.796 1.762 1.032 2.343 0.144 0.356 0.084991 0.205 0.34299 0.96901 0.40901 1.211 0.10701 0.101 0.28201 0.875 0.273 1.21 0.085999 0.028 0.15599 1.094 0.10001 1.53 0.112 1.461 0.15601 1.875-0.181 0.423-0.45201 1.04-1.219 2.281-0.756 1.226-1.141 1.741-1.437 2.094-0.39 0.145-0.34399 0.080994-1.781 0.687-0.97 0.409 0.127 0.048996-1.063 0.34401-0.961 0.23799-0.13501 0.084-0.875 0.18799-0.699 0.098007-0.5 0.048004-1.062 0.093002-0.79201 0.063995-1.488 0.106-2.532 0.157-2.01 0.097-4.858 0.201-8.281 0.31201-1.081 0.034988-2.738 0.088989-3.906 0.125-6.624 0.198-12.467 4.388-14.779 10.598-2.313 6.21-0.63301 13.202 4.248 17.683 0.97099 0.894 2.204 2.006 2.875 2.625 2.525 2.332 4.619 4.251 6.062 5.625 0.66899 0.63701 1.195 1.154 1.844 1.813 0.504 0.51199 0.304 0.276 0.71901 0.75 0.86899 0.994 0.062988 0.024002 0.53099 0.687 0.48801 0.692 0.069-0.063004 0.59401 1 0.704 1.429 0.70499 1.354 0.90599 1.719-0.007004 0.45799-0.054001 1.093-0.28099 2.5-0.227 1.403-0.393 1.997-0.53201 2.438-0.29999 0.27701-0.282 0.237-1.406 1.375-0.77 0.77901 0.071991 0.044006-0.84401 0.718-0.659 0.48601 0.33801-0.13899-0.75 0.5-0.549 0.323-0.32799 0.19-0.937 0.5-0.744 0.38-1.368 0.664-2.281 1.094-1.901 0.89499-4.463 2.081-7.532 3.469-0.86 0.38899-2.371 1.072-3.531 1.594-6.021 2.727-9.797 8.823-9.557 15.429s4.448 12.412 10.651 14.696c1.189 0.435 2.751 1.01 3.656 1.343 3.141 1.158 5.73 2.138 7.719 2.907 1.115 0.43 1.792 0.69 2.375 0.937 0.524 0.222 0.347 0.13 0.96901 0.438 1.09 0.54 0.075989-0.008003 0.78099 0.437 0.717 0.453-0.026001-0.102 0.875 0.688 1.166 1.022 1.142 0.95599 1.469 1.218 0.17 0.429 0.418 1.037 0.75 2.438 0.20799 0.879 0.21399 1.077 0.34299 2.531 0.403 4.565 2.71 8.7501 6.356 11.528 3.645 2.7773 8.292 3.8905 12.801 3.0663 73.586 1.1188 163.07-27.82 230.75-70.625 4.6693-1.78 8.2633-5.604 9.75-10.375-0.1853 0.59399-0.44321 1.484 1-2.063 0.4169-1.024-0.041504-0.134 0.5-1.031 0.4762-0.789-0.091805 0.064987 0.5-0.71901 0.296-0.392 0.048096-0.061996 0.6875-0.812 0.6209-0.728 1.0474-1.205 1.6562-1.875 1.4242-1.567 3.33-3.646 5.625-6.094 0.6521-0.69501 1.8169-1.919 2.6875-2.844 4.5402-4.825 5.7054-11.92 2.9473-17.944-2.7583-6.024-8.8903-9.777-15.51-9.493-1.4273 0.059006-3.0968 0.15601-3.875 0.187-3.3506 0.133-6.1599 0.231-8.2812 0.282-1.0197 0.024002-1.7089 0.037003-2.5313 0.031006-0.8049-0.005997-0.4391 0.007996-1.0312-0.031006-0.8261-0.056 0.073299 0.03801-0.875-0.125-1.1071-0.19099-0.082798 0.072006-1.125-0.282-1.4766-0.50099-1.4092-0.444-1.8125-0.562-0.3184-0.327-0.7785-0.796-1.625-1.969-0.8433-1.169-1.1364-1.725-1.3438-2.125 0.014999-0.436 0.041199-0.356 0.0313-1.906-0.0075-1.168-0.070999-0.273 0.0625-1.156 0.1171-0.77499-0.1329 0.513 0.2187-0.84399 0.1836-0.709 0.1255-0.519 0.2813-1 0.2465-0.76199 0.4935-1.462 0.8437-2.438 0.6917-1.927 1.6757-4.566 2.875-7.75 0.2941-0.78 0.8857-2.333 1.375-3.625 2.3565-6.195 0.7243-13.2-4.1275-17.715-4.8519-4.516-11.956-5.642-17.966-2.847-1.1089 0.51498-2.6093 1.23-3.5313 1.656-3.0429 1.406-5.5896 2.546-7.5312 3.406-1.0849 0.481-1.7502 0.791-2.3438 1.032-0.3404 0.138-0.1969 0.082001-0.9687 0.343-1.393 0.47101-0.1114 0.116-0.8438 0.282-1.0977 0.248-0.041 0.084-1.125 0.15601-1.5306 0.101-1.4614 0.112-1.875 0.15601-0.4233-0.18201-1.0388-0.45201-2.2812-1.219-1.2208-0.75299-1.712-1.143-2.0625-1.437-0.1463-0.394-0.1072-0.33-0.7188-1.781-0.4123-0.979-0.0545 0.076004-0.3437-1.094-0.2397-0.97-0.0874-0.159-0.1875-0.875-0.0991-0.70902-0.0505-0.48801-0.093801-1.031-0.0661-0.83301-0.1077-1.516-0.1562-2.532-0.097-2.029-0.2029-4.869-0.3125-8.281-0.0353-1.098-0.0902-2.755-0.125-3.906-0.1979-6.624-4.3882-12.467-10.598-14.779-6.2098-2.313-13.201-0.633-17.683 4.248-0.8966 0.974-1.9963 2.196-2.5937 2.843-2.332 2.526-4.2502 4.62-5.625 6.063-0.6369 0.668-1.1538 1.195-1.8125 1.844-0.5122 0.504-0.276 0.30402-0.75 0.71802-0.9944 0.87-0.0245 0.062988-0.6875 0.53198-0.6918 0.48801 0.063301 0.069-1 0.59302-1.4283 0.70499-1.3533 0.70499-1.7188 0.90698-0.4576-0.007996-1.0925-0.053986-2.5-0.28198-1.4022-0.22702-1.9965-0.392-2.4375-0.53101-0.278-0.301-0.2363-0.28201-1.375-1.406-0.7748-0.76502-0.037399 0.079987-0.7187-0.84399-0.4822-0.65399 0.148 0.35199-0.5-0.75-0.3191-0.54199-0.182-0.315-0.5-0.93701-0.4426-0.867-0.7448-1.444-1.125-2.25-0.8617-1.827-2.0271-4.447-3.4375-7.563-0.3834-0.84702-1.0652-2.358-1.5938-3.531-2.5107-5.588-7.944-9.294-14.062-9.594z" fill="url(#g)"/>
  <path d="m50.511-138.7a108.57 108.57 0 1 1 -217.14 0 108.57 108.57 0 1 1 217.14 0z" fill="url(#j)" filter="url(#f)"/>
  <path d="m-66.127-235.44c-39.283 0-73.454 27.635-82.187 64.657-2.221 9.409-0.40001 19.318 5.021 27.323 5.422 8.005 13.948 13.373 23.51 14.802 8.413 1.249 17.929 1.418 30.75 0.56201 23.024-1.538 48.513-7.691 75.812-16.187 10.161-3.165 18.298-10.833 22.058-20.789 3.7601-9.956 2.7243-21.089-2.8081-30.18-14.715-24.161-42.053-40.188-72.156-40.188z" fill="url(#h)"/>
 </g>
</svg>
